<svg width="24" height="24" viewBox="0 0 24 24" fill="none" xmlns="http://www.w3.org/2000/svg">
<path d="M23.4847 15.0186C22.7118 14.1547 21.2303 13.7559 19.1047 13.7559C17.9453 13.7559 16.7214 13.8888 15.562 14.0882C14.7891 13.3572 14.1449 12.4933 13.5008 11.6294C13.0499 10.9649 12.599 10.3003 12.2126 9.56935C12.8567 7.70864 13.2432 5.71503 13.372 3.72141C13.372 1.92716 12.6634 0 10.7311 0C10.087 0 9.44283 0.398723 9.12077 0.996807C8.28341 2.45879 8.60548 5.44921 9.95813 8.57254C9.50725 9.96807 8.99195 11.3636 8.41224 12.892C7.89694 14.2211 7.31723 15.4837 6.6087 16.6799C4.61192 17.4774 0.425121 19.471 0.0386474 21.6639C-0.0901771 22.3285 0.103059 22.993 0.618357 23.3917C1.06924 23.7905 1.71337 24.0563 2.35749 23.9898C4.86957 23.9898 7.38164 20.4013 9.12077 17.278C10.087 16.9457 11.0531 16.6135 12.0837 16.3476C13.1787 16.0818 14.2093 15.816 15.1755 15.6166C17.8808 18.009 20.2641 18.4077 21.4235 18.4077C23.0338 18.4077 23.6779 17.6767 23.8712 17.0786C24.1288 16.3476 24 15.5502 23.4847 15.0186ZM21.7456 16.2812C21.6812 16.7464 21.1659 17.0786 20.5217 17.0786C20.3285 17.0786 20.1353 17.0786 19.942 17.0122C18.6538 16.6799 17.43 16.0154 16.3994 15.1515C17.2367 15.0186 18.1385 14.9521 18.9758 14.9521C19.5556 14.9521 20.1353 15.0186 20.715 15.085C21.2947 15.2179 21.9388 15.4837 21.7456 16.2812ZM10.2158 1.59489C10.3446 1.39553 10.5378 1.26262 10.7955 1.19617C11.4396 1.19617 11.5684 1.92716 11.5684 2.5917C11.504 4.12014 11.2464 5.58212 10.7955 7.0441C9.70048 4.18659 9.82931 2.25943 10.2158 1.59489ZM13.8229 14.354C13.1143 14.4869 12.4058 14.6863 11.6973 14.8857C11.182 15.0186 10.6667 15.2179 10.087 15.3508C10.3446 14.7527 10.6023 14.1547 10.8599 13.623C11.182 12.892 11.4396 12.161 11.6973 11.4301C11.9549 11.8288 12.1481 12.161 12.4058 12.4933C12.8567 13.1579 13.372 13.7559 13.8229 14.354ZM6.02899 18.2083C4.41868 20.8665 2.80837 22.5943 1.9066 22.5943C1.77778 22.5943 1.58454 22.5278 1.52013 22.4614C1.32689 22.3285 1.26248 22.0627 1.32689 21.8633C1.45572 20.8665 3.32367 19.471 6.02899 18.2083Z" fill="#2892FF"/>
</svg>
