<svg width="1440" height="1200" viewBox="0 0 1440 1200" fill="none" xmlns="http://www.w3.org/2000/svg">
<path d="M1397.09 -415.764C1390.8 -417.053 1380.49 -413.013 1374.14 -407.93C1354.88 -392.508 1336.5 -375.637 1318.18 -358.82C1313.38 -354.414 1309.6 -348.374 1306.09 -342.704C1296.59 -327.351 1287.21 -311.913 1278.29 -296.283C1270.15 -282.041 1265.83 -267.495 1270.99 -253.858C1273.43 -247.407 1270.7 -241.173 1266.52 -236.198C1226.35 -188.36 1181.01 -148.962 1125.28 -127.347C1123.52 -126.661 1120.09 -126.937 1119.84 -127.916C1119.03 -131.067 1118 -135.292 1119.5 -138.143C1123.65 -146.036 1129.2 -153.364 1133.8 -161.11C1134.71 -162.633 1134.36 -165.424 1133.57 -166.886C1132.97 -167.991 1130.54 -168.8 1129.29 -168.218C1119.61 -163.721 1109.36 -160.15 1100.53 -153.883C1056.93 -122.945 1013.72 -91.2645 969.204 -58.9926C965.358 -46.4128 961.432 -34.0612 957.84 -21.6782C954.817 -11.2529 953.693 -0.317726 949.093 9.57053C934.019 41.9698 919.558 74.8452 901.437 105.932C881.795 139.629 865.014 172.952 859.05 209.746C854.729 236.402 840.282 259.091 817.803 276.936C796.759 293.643 774.945 309.246 754.621 326.935C740.836 338.932 727.163 350.112 711.398 358.095C693.537 367.142 678.352 380.166 665.141 396.587C655.175 408.977 643.315 419.9 633.603 432.45C612.529 459.68 588.238 484.129 562.729 505.677C533.226 530.598 509.312 561.259 480.06 586.063C469.649 594.89 462.606 606.549 460.345 620.238C459.357 626.222 456.716 633.061 452.977 638.292C430.261 670.076 414.634 704.507 399.467 739.255C393.315 753.35 382.692 760.271 367.056 758.151C367.745 745.182 368.469 731.555 369.303 715.849C360.79 724.048 354.764 731.231 347.661 736.454C314.495 760.849 298.778 795.719 284.626 830.781C277.228 849.111 271.65 868.651 269.386 887.233C263.23 937.767 239.495 982.533 208.412 1025.82C199.165 1038.69 189.621 1052.11 183.48 1066.17C163.013 1113.04 135.233 1157.81 120.752 1206.38C116.84 1219.49 109.546 1230.93 98.6441 1239.63C87.6996 1248.36 79.6631 1258.24 74.3347 1271.31C67.6433 1287.72 59.3405 1303.75 51.7984 1319.96C39.308 1346.81 23.4283 1371.68 -0.248221 1390.31C-31.9391 1415.25 -56.4415 1450.18 -92.1958 1469.51C-97.5649 1472.42 -101.544 1479.3 -106.46 1483.99C-134.404 1510.66 -162.604 1536.62 -197.233 1551.81C-206.86 1556.04 -215.687 1564.01 -224.916 1570.19C-232.312 1575.14 -239.714 1580.08 -247.204 1584.82C-254.913 1589.69 -267.534 1589.59 -268.252 1583.68C-268.909 1578.28 -269.051 1570.4 -265.861 1566.36C-255.81 1553.63 -250.013 1540.76 -245.102 1525.69C-230.349 1480.42 -229.329 1480.48 -189.751 1455.44C-178.529 1448.34 -166.982 1442 -155.697 1435.04C-154.664 1434.4 -153.622 1430.42 -154.002 1430.22C-156.829 1428.67 -159.927 1426.25 -163.099 1426.78C-175.339 1428.83 -186.579 1435.71 -198.164 1442.27C-246.056 1469.39 -290.183 1504.36 -336.416 1534.89C-344.155 1540.01 -347.675 1547.55 -347.554 1557.02C-347.186 1585.68 -358.734 1611.16 -383.619 1631.17C-404.323 1647.82 -420.277 1670.5 -444.514 1683.18C-457.759 1690.11 -468.97 1705.24 -470.641 1720.67C-472.781 1740.41 -484.616 1752.71 -499.119 1763.91C-532.966 1790.06 -563.593 1819.76 -592.878 1851.78C-605.359 1865.42 -616.583 1879.03 -625.927 1894.54C-643.435 1923.59 -660.498 1952.81 -680.807 1980.42C-691.514 1994.98 -700.242 2011.08 -708.802 2026.92C-752.659 2108.06 -792.827 2190.65 -838.103 2271.26C-850.197 2292.79 -859.075 2315.76 -869.081 2338.18C-889.92 2384.86 -912.044 2431.24 -923.479 2479.97C-926.402 2492.43 -932.8 2504.78 -937.5 2517.2C-950.022 2550.31 -962.542 2583.41 -974.943 2616.54C-978.82 2626.9 -981.425 2637.61 -986.153 2647.67C-997.804 2672.46 -1012.5 2694.67 -1037.75 2708.32C-1055.05 2717.67 -1071.74 2728.91 -1088.78 2739.1C-1104.1 2748.25 -1119.48 2755.24 -1135.94 2753.87C-1154.3 2752.35 -1171.45 2759.59 -1187.86 2773.97C-1194.41 2779.7 -1202.9 2784.96 -1210.48 2786.65C-1229.75 2790.94 -1245.09 2804.46 -1261.47 2815.76C-1309.29 2848.75 -1351.88 2889.86 -1397.38 2926.46C-1418.38 2943.34 -1437.72 2963.38 -1459.63 2978.17C-1521.43 3019.92 -1573.06 3074.38 -1625.16 3128.35C-1636.04 3139.63 -1646.71 3152.63 -1653.69 3166.25C-1679.64 3216.93 -1713.97 3261.28 -1752.06 3304.13C-1780.54 3336.16 -1810.69 3367.52 -1829.46 3407.38C-1836.81 3422.99 -1852.23 3435.83 -1860.81 3451.29C-1869.44 3466.85 -1873.33 3484.35 -1880.86 3500.51C-1886.47 3512.57 -1894.26 3524.03 -1901.6 3535.46C-1926.69 3574.51 -1941.6 3616.57 -1949.76 3658.43C-1962.05 3721.53 -1976.51 3784.54 -1990.88 3847.55C-2001.57 3894.38 -2007.28 3939.93 -1999.15 3983.46C-1996.99 3995 -1995.27 4006.73 -1993.37 4018.38C-1990.82 4033.93 -1986.38 4049.03 -1986.25 4065.16C-1986.11 4083.42 -1979.38 4096.01 -1965.93 4102.85C-1935 4118.61 -1919.21 4147.74 -1905.84 4179.32C-1902.18 4187.96 -1899.72 4197.38 -1895.79 4205.82C-1890.26 4217.7 -1884.57 4229.58 -1877.49 4240.25C-1874.95 4244.08 -1868.19 4244.42 -1861.76 4246.99C-1846.23 4215.89 -1833.81 4184.46 -1806.11 4162.14C-1803.09 4159.7 -1801.8 4154.47 -1799.83 4150.49C-1792.91 4136.45 -1785.83 4122.45 -1779.21 4108.31C-1771.5 4091.82 -1767.61 4076.41 -1771.75 4059.59C-1779.53 4027.95 -1770.17 3994.52 -1753.47 3961.57C-1752.69 3960.03 -1749.91 3957.96 -1748.64 3958.09C-1745.08 3958.44 -1739.75 3958.55 -1738.79 3960.99C-1733.22 3975.04 -1728.97 3989.88 -1723.7 4004.12C-1721.78 4009.31 -1718.95 4014.32 -1715.22 4017.97C-1713.06 4020.07 -1708.03 4020.71 -1704.71 4019.42C-1701.38 4018.12 -1696.66 4013.65 -1695.92 4010.47C-1694.02 4002.36 -1692.83 3993.83 -1693.45 3986.12C-1694.9 3968.14 -1701.91 3950.76 -1698.92 3932.74C-1690.59 3882.51 -1689.81 3832.37 -1671.06 3781.74C-1667.29 3771.54 -1663.67 3760.09 -1664.31 3750.51C-1666.03 3724.95 -1656.65 3701.73 -1644.49 3676.86C-1621.71 3630.27 -1598.16 3584.68 -1561.82 3545.59C-1549.85 3523.23 -1529.34 3507.44 -1515.3 3486.9C-1499.92 3464.41 -1485.3 3442.32 -1461.33 3427.81C-1454.75 3423.83 -1450.32 3413.79 -1445.48 3406.22C-1440.73 3398.79 -1436.7 3390.96 -1431.58 3381.93C-1415.37 3380.78 -1400.25 3379.71 -1385.16 3378.63C-1385.03 3378.75 -1384.92 3378.88 -1384.78 3379C-1384.62 3378.86 -1384.46 3378.71 -1384.3 3378.57C-1383.96 3378.55 -1383.61 3378.52 -1383.27 3378.5C-1383.58 3378.49 -1383.91 3378.51 -1384.23 3378.51C-1370.4 3366.66 -1357.57 3353.81 -1343.38 3343.52C-1317.43 3324.7 -1290.08 3312.75 -1261.94 3317.84C-1254.24 3319.24 -1247.1 3319.85 -1238.82 3315.46C-1225.35 3308.32 -1211.61 3301.96 -1198.28 3294.43C-1195.17 3292.67 -1193.25 3287.5 -1190.78 3283.9C-1190.6 3284.14 -1190.42 3284.38 -1190.24 3284.62C-1190.58 3285.27 -1190.91 3285.93 -1191.26 3286.49C-1162.79 3295.72 -1137.38 3279.97 -1113.02 3258.19C-1107.47 3253.22 -1106.61 3245.86 -1108.99 3240.72C-1111.23 3235.88 -1116.5 3233.12 -1119.35 3228.57C-1121.1 3225.78 -1122.67 3220.12 -1121.08 3217.92C-1117.5 3212.96 -1112.22 3208.5 -1107.02 3205.49C-1103.71 3203.57 -1098.19 3202.96 -1095.58 3204.56C-1079.28 3214.61 -1064.26 3209.03 -1046.01 3195.11C-1017.67 3173.48 -987.524 3154.94 -957.7 3134.79C-953.645 3126.59 -948.794 3118.81 -945.971 3110.7C-937.134 3085.29 -924.084 3062.66 -904.961 3041.9C-894.473 3030.52 -887.132 3015.8 -879.261 3002.18C-875.785 2996.17 -877.138 2990.03 -881.311 2985.91C-882.569 2984.67 -884.739 2984.41 -885.967 2983.15C-897.724 2971.06 -896.748 2957.43 -881.514 2948.48C-865.658 2939.17 -852.799 2928.69 -843.663 2911.72C-837.332 2899.95 -829.034 2888.89 -820.967 2877.96C-809.884 2862.95 -796.167 2851.61 -779.656 2845C-779.641 2845.03 -779.556 2845.17 -779.466 2845.33L-779.216 2845.76C-775.847 2841.59 -772.479 2837.42 -769.112 2833.24L-770.4 2832.87C-763.936 2823.96 -755.844 2815.25 -766.531 2807.07C-768.553 2805.52 -769.252 2799.5 -767.738 2796.71C-758.93 2780.47 -759.911 2764.31 -756.444 2748.12C-752.96 2731.86 -749.059 2715.38 -743.128 2699.42C-738.016 2685.66 -728.262 2674.61 -714.526 2668.85C-715.934 2663.66 -718.824 2658.69 -718.367 2653.24C-716.94 2636.25 -708.695 2621.63 -694.367 2610.05C-688.718 2610.86 -683.15 2611.68 -677.599 2612.51C-677.599 2612.51 -677.494 2613.04 -677.493 2613.04C-677.914 2607.43 -680.132 2601.6 -678.465 2596.23C-667.789 2561.86 -657.216 2527.4 -644.608 2493.35C-638.316 2476.36 -636.521 2462.2 -642.824 2447.9C-644.238 2444.69 -638.168 2436.65 -635.545 2430.84L-634.882 2432.63C-634.882 2432.62 -634.88 2432.62 -634.879 2432.62C-634.879 2432.62 -634.876 2432.63 -634.876 2432.63C-634.171 2431.77 -633.468 2430.91 -632.764 2430.06C-633.222 2430.18 -633.641 2430.3 -634.127 2430.44C-631.021 2421.69 -624.611 2415.65 -617.333 2410.33C-617.341 2410.68 -617.351 2410.99 -617.36 2411.32L-615.396 2408.93L-617.29 2408.76C-608.911 2397.95 -600.621 2387.1 -599.129 2373.82C-599.09 2373.94 -599.051 2374.06 -599.012 2374.18C-591.342 2358.14 -582.225 2342.33 -576.288 2325.94C-562.752 2288.57 -546.245 2252.27 -527.392 2216.45C-517.978 2198.57 -509.62 2180.37 -497.685 2163.56C-495.543 2160.54 -496.206 2155.7 -495.623 2151.67C-493.535 2154.62 -491.834 2158.09 -489.101 2160.27C-482.491 2165.56 -481.779 2173.61 -485.629 2181.94C-500.58 2214.31 -516.728 2246.31 -531.582 2278.71C-540.866 2298.96 -548.993 2319.59 -556.971 2340.19C-564.161 2358.75 -569.635 2377.71 -577.297 2396.15C-592.105 2431.77 -596.262 2466.95 -597.442 2502.09C-597.64 2507.98 -595.874 2513.56 -594.469 2519.02C-594.067 2520.58 -591.95 2521.99 -590.263 2522.08C-588.538 2522.18 -586.072 2521.02 -584.448 2519.64C-569.431 2506.97 -564.046 2489.61 -559.6 2473.23C-546.982 2426.72 -526.098 2382.68 -502.018 2339.38C-497.668 2331.56 -494.467 2321.72 -488.24 2316.52C-470.314 2301.54 -464.15 2282.75 -463.383 2264.15C-462.009 2230.81 -445.345 2201.92 -426.783 2173.33C-418.196 2160.1 -407.106 2148.32 -397.852 2135.42C-392.698 2128.23 -386.872 2120.16 -385.021 2112.37C-379.45 2088.91 -363.053 2081.5 -344.791 2074.89C-346.849 2090.11 -348.901 2104.51 -350.595 2118.87C-350.792 2120.55 -349.229 2122.22 -348.12 2123.56C-345.623 2126.55 -341.921 2126.25 -337.864 2122.35C-329.768 2114.56 -322.192 2106.07 -313.685 2098.92C-311.378 2096.99 -303.965 2097.28 -303.218 2099.17C-297.853 2112.76 -286.852 2115.79 -272.69 2115.58C-265.024 2115.47 -258.25 2119.48 -250.704 2120.49C-245.16 2121.23 -238.725 2121.77 -233.191 2119.53C-213.524 2111.57 -192.934 2110.41 -173.919 2096.82C-166.99 2091.87 -158.227 2087.97 -150.681 2087.11C-128.741 2084.6 -110.781 2078.51 -104.145 2050.59C-102.956 2045.59 -95.969 2039.72 -90.741 2036.07C-64.8271 2017.98 -42.4314 1996.76 -27.1716 1967.95C-25.31 1964.44 -20.4822 1962.16 -17.1449 1959.16C-11.9172 1954.46 -8.46156 1956.49 -7.10543 1965.17C-5.49122 1975.5 -4.29133 1976.57 2.18647 1972.55C7.29379 1969.39 12.2105 1965.77 18.4983 1961.47C17.0311 1967.97 15.3214 1972.28 15.3986 1976.15C15.4723 1979.85 16.3669 1984.6 18.8093 1986.1C21.2482 1987.6 26.8155 1987.05 29.6931 1984.96C42.1192 1975.92 54.061 1965.98 64.8754 1957.4C65.5288 1952.87 66.5283 1950.48 65.9876 1948.98C62.2188 1938.49 58.1283 1928.19 54.1903 1917.96C75.4615 1891.2 79.3874 1887.68 103.48 1873.68C108.368 1870.84 112.815 1874.47 114 1882.65C114.273 1884.54 113 1887.06 113.411 1888.84C115.918 1899.72 127.439 1901.96 135.92 1893.38C143.958 1885.25 152.45 1876.59 153.299 1865.51C155.032 1842.95 167.065 1825.38 182.179 1807.14C214.082 1768.63 244.59 1728.94 275.151 1689.35C283.421 1678.63 291.15 1666.96 296.849 1654.99C312.187 1622.78 335.375 1594.15 348.945 1560.97C355.506 1544.93 365.336 1528.99 379.39 1516.48C386.566 1510.09 394.351 1505.74 401.991 1507.72C414.573 1510.99 426.515 1515.76 438.728 1519.89L437.683 1521C441.039 1518.34 444.757 1513.72 447.641 1513.63C450.185 1513.55 453.794 1518.37 453.396 1521.34C452.614 1527.18 450.244 1533.64 447.008 1539.11C434.837 1559.7 431.636 1579.99 433.759 1600.59C434.439 1607.2 436.044 1610.94 443.851 1609.33C453.479 1607.34 463.079 1606.6 474.745 1605.05C478.523 1595.92 481.218 1585.31 486.969 1576.41C496.454 1561.74 498.712 1549.09 492.846 1535.81C490.928 1531.48 498.527 1522.85 504.253 1522.08C508.092 1521.56 511.785 1522.6 515.625 1522.12C521.307 1521.41 527.699 1521.51 532.607 1518.44C537.787 1515.2 542.882 1509.11 545.725 1503.44C553.002 1488.94 554.539 1474.7 550.754 1460.82C544.565 1438.12 547.805 1394.17 549.016 1364.82C550.089 1338.87 564.886 1315.04 567.392 1289.94C570.037 1263.44 591.305 1242.55 602.233 1218.41C608.635 1204.27 616.745 1190.51 625.084 1177.09C630.976 1167.61 637.371 1157.25 645.623 1150.42C658.781 1139.52 666.157 1126.5 671.505 1111.81C690.556 1059.46 725.925 1014.16 752.731 965.161C772.58 943.354 792.231 921.347 812.359 899.821C823.093 888.341 841.109 891.916 844.706 905.726C846.149 911.261 846.387 917.556 848.794 922.379C850.132 925.062 854.98 927.373 857.94 926.425C863.713 924.579 869.205 920.104 874.93 917.102C897.814 905.109 913.084 879.157 938.742 871.298C945.668 869.176 952.663 860.215 958.529 853.419C970.391 839.675 981.688 825.402 992.864 811.08C1001.64 799.828 1005.49 788.11 1004.1 775.026C1003.58 770.08 1007.07 762.567 1010.76 757.678C1017.54 748.685 1027.12 741.524 1033.23 732.263C1053.25 701.893 1075.56 673.422 1099.8 646.255C1105.8 639.534 1111.69 632.156 1115.81 624.359C1126.54 604.08 1140.86 586.563 1156.8 570.35C1168.29 558.664 1177.36 545.619 1182.73 531.066C1192.56 504.416 1197.31 476.992 1209.66 450.619C1211.41 446.865 1211.3 442.175 1211.07 438.202C1210.16 422.373 1208.85 406.656 1207.65 390.272C1202.25 393.808 1197.18 395.479 1195.42 398.608C1191.1 406.29 1188.22 414.625 1184.92 422.732C1181.35 431.457 1175.34 438.5 1167.42 442.37C1150.08 450.848 1132.53 458.674 1114.91 465.872C1112.23 466.965 1108.42 463.625 1105.75 461.564C1105.04 461.018 1106.15 457.42 1107.17 455.529C1115.84 439.5 1126.18 424.987 1141.73 414.709C1162.21 401.17 1170.82 380.427 1176.76 359.346C1180.25 346.94 1181.02 333.83 1170.22 326.838C1160.69 320.66 1164.39 310.188 1166.37 299.737C1166.81 297.398 1162.43 292.886 1160.19 293.349C1154.41 294.544 1148.62 298.243 1142.77 300.43C1136.83 302.647 1130.23 297.049 1132.44 291.859C1135.89 283.781 1138.26 274.631 1143.66 268.025C1154.42 254.855 1156.35 241.632 1159.86 226.822C1163.83 210.02 1166.38 193.716 1168.03 177.238C1168.02 177.169 1168.01 177.099 1168 177.03C1177.92 174.011 1185.28 167.99 1188.17 156.423C1194.33 131.836 1194.9 106.465 1212.23 83.288C1212.9 82.3965 1209.64 76.9159 1207 75.8454C1200.62 73.2639 1190.77 79.0024 1185.95 70.0855C1188.52 56.5735 1191.27 42.1291 1193.81 28.7459C1208.7 14.9063 1222.18 3.1982 1234.69 -9.55605C1242.45 -17.4568 1251.16 -26.3245 1255.18 -35.8491C1263.12 -54.6443 1278.74 -69.4188 1286.58 -86.6608C1296.47 -108.371 1310.31 -123.707 1327.71 -138.151C1340.18 -148.498 1347.91 -161.521 1351.86 -177.157C1354.42 -187.325 1360.26 -197.374 1364.99 -207.356C1365.69 -208.833 1369.05 -210.923 1370.06 -210.546C1372.99 -209.446 1377.56 -207.758 1377.57 -205.377C1377.66 -191.248 1376.64 -176.856 1376 -162.556C1375.69 -155.46 1379.21 -152.098 1385.64 -151.851C1392.21 -151.6 1397.85 -155.815 1401.38 -161.501C1405.98 -168.92 1409.16 -177.085 1412.93 -184.941C1408.55 -182.103 1404.73 -182.038 1402.83 -185.767C1397.49 -196.229 1398.79 -208.969 1400.9 -221.447C1402.51 -230.904 1402.39 -237.885 1392.75 -239.321C1382.85 -255.518 1379.37 -272.615 1386.63 -295.932C1392.85 -315.905 1400.09 -332.575 1417.51 -345.552C1421.04 -348.182 1423.72 -352.262 1427.17 -355.117C1432.7 -359.705 1438.21 -360.124 1444.07 -358.748C1450.39 -357.267 1455.33 -361.256 1457.9 -368.275C1466.53 -391.883 1467.49 -413.462 1454.49 -432.601C1445.26 -428.585 1435.35 -424.92 1425.82 -419.955C1415.69 -414.668 1407.05 -413.724 1397.09 -415.764ZM-1391.85 3371.97C-1389.71 3374.12 -1387.67 3376.38 -1385.27 3378.53C-1388.24 3378.63 -1391.3 3378.91 -1393.75 3378C-1396.21 3377.08 -1397.57 3374.01 -1399.41 3371.88C-1398.15 3370.92 -1396.56 3369.03 -1395.71 3369.19C-1394.18 3369.46 -1392.98 3370.83 -1391.85 3371.97ZM-1149.22 3250.84L-1153.37 3252.57L-1151.16 3248.3L-1149.22 3250.84ZM-1022.18 2731.21C-1024.57 2741.34 -1028.29 2751.43 -1031.11 2760.17C-1037.71 2766.41 -1042.09 2772.57 -1047.46 2775.31C-1082.53 2793.17 -1114.94 2816.47 -1147.82 2839.57C-1186.13 2866.5 -1227.77 2884.71 -1269.96 2898.6C-1273.29 2899.7 -1280.16 2897.26 -1279.99 2896.08C-1279.17 2890.52 -1277.66 2883.93 -1274.14 2879.41C-1270.18 2874.33 -1264.09 2869.99 -1258.43 2867.26C-1248.76 2862.59 -1238.59 2859.92 -1228.86 2855.42C-1223.24 2852.83 -1215.16 2849.02 -1213.25 2844.48C-1205.84 2826.83 -1193.32 2820.89 -1178.41 2819.05C-1163.92 2817.27 -1150.57 2811.55 -1137.66 2801.74C-1114.52 2784.16 -1091.35 2766.59 -1067.8 2749.75C-1055.29 2740.8 -1042.06 2733.13 -1028.87 2725.66C-1027.44 2724.85 -1021.73 2729.32 -1022.18 2731.21ZM-779.559 2844.84C-780.533 2842.17 -782.308 2839.27 -781.356 2837.18C-778.752 2831.46 -774.52 2832.75 -770.613 2833.14C-773.599 2837.03 -776.585 2840.92 -779.559 2844.84ZM-695.71 2608.32C-696.811 2607.89 -697.77 2607.48 -697.677 2607.14C-696.505 2602.96 -695.727 2603.54 -695.71 2608.32ZM-599.533 2372.6C-600.92 2373.99 -602.271 2375.45 -603.772 2376.67C-611.83 2383.24 -617.136 2383.14 -619.689 2376.35C-620.805 2373.39 -622.026 2370.49 -623.218 2367.57C-618.333 2361.45 -613.252 2355.66 -605.518 2354.34C-603.529 2360.39 -601.53 2366.48 -599.533 2372.6ZM-594.711 2269.73C-602.902 2294.56 -611.976 2319.28 -619.971 2344.13C-622.298 2351.37 -622.731 2358.85 -623.744 2366.26C-623.792 2366.14 -623.84 2366.02 -623.888 2365.9C-642.295 2384.08 -652.817 2405.85 -660.276 2429.12C-668.929 2456.11 -677.489 2483.12 -686.938 2509.98C-688.901 2515.57 -694.064 2521.17 -698.745 2525.53C-701.411 2528 -706.957 2529.64 -709.616 2528.61C-712.439 2527.51 -715.312 2522.93 -714.792 2519.68C-713.149 2509.43 -711.946 2498.29 -706.975 2488.93C-680.636 2439.31 -661.491 2387.76 -640.656 2336.75C-628.871 2307.91 -612.717 2281.81 -592.948 2248.81C-593.816 2260.18 -593.187 2265.11 -594.711 2269.73ZM-450.094 1994.1L-444.976 1991.76L-447.699 1997.02L-450.094 1994.1ZM-490.549 2066.9C-491.311 2070.05 -492.073 2073.21 -492.835 2076.36C-493.296 2073.45 -493.955 2070.6 -494.678 2067.76C-493.301 2067.48 -491.925 2067.19 -490.549 2066.9ZM-527.126 2142.45C-528.199 2145.28 -532.106 2147.54 -534.763 2150.05C-534.405 2147.08 -534.826 2143.82 -533.494 2141.2C-531.977 2138.22 -529.501 2135.59 -527.217 2132.89C-527.045 2136.2 -526.024 2139.54 -527.126 2142.45ZM-299.567 1917.84C-316.597 1932.15 -332.978 1946.94 -349.022 1962.75C-368.375 1981.82 -389.21 1998.31 -397.59 2025.29C-398.796 2029.17 -402.004 2033.27 -405.078 2036.41C-427.516 2059.34 -444.997 2085 -457.942 2113.89C-465.608 2130.99 -481.837 2140.2 -495.606 2151.52C-492.495 2145.97 -487.584 2140.37 -486.585 2134.89C-481.86 2108.98 -469.753 2086.68 -452.346 2064.57C-430.126 2036.34 -408.758 2007.16 -393.846 1974.34C-390.682 1967.37 -381.083 1957.87 -375.017 1956.97C-345.153 1952.52 -328.117 1927.22 -307.385 1907.46C-305.359 1905.53 -300.459 1907.06 -296.893 1906.99C-297.724 1910.69 -297.434 1916.05 -299.567 1917.84ZM79.6905 1668.78C79.2761 1669.25 77.1771 1668.21 75.8602 1667.87C76.6317 1666.13 77.443 1663.01 78.1694 1662.86C83.0118 1661.89 83.6325 1664.26 79.6905 1668.78ZM133.128 1632.42C129.918 1636.99 122.325 1639.47 116.577 1641.46C113.114 1642.66 107.971 1642.42 106.087 1640.32C104.325 1638.35 104.646 1632.67 106.231 1629.35C109.026 1623.48 113.108 1617.85 117.314 1612.66C130.051 1596.93 143.107 1581.45 156.039 1565.87C155.889 1565.74 155.738 1565.61 155.587 1565.49C169.837 1548.32 184.034 1531.11 198.378 1514.02C201.788 1509.96 210.559 1512.99 212.039 1518.1C214.841 1527.77 214.529 1538.63 208.285 1547.97C198.401 1562.75 188.052 1578.85 174.822 1589.65C159.035 1602.54 144.945 1615.59 133.128 1632.42ZM413.434 1294.76C402.878 1325.92 394.304 1357.39 383.504 1388.5C381.031 1395.63 373.622 1401.95 368.134 1408.59C375.303 1428.57 369.123 1447.33 351.541 1465.42C348.932 1468.1 347.803 1472.37 345.99 1475.91C349.245 1476.95 353.003 1477.34 355.608 1479.24C358.12 1481.07 361.142 1484.16 360.983 1487.22C360.42 1498.01 356.368 1509.56 346.469 1515.77C310.849 1538.1 290.737 1573.27 268.264 1606.89C258.299 1621.8 246.616 1635.7 235.477 1649.88C234.959 1650.53 231.945 1649.77 230.457 1649.05C229.005 1648.35 227.195 1647.19 226.952 1645.68C224.276 1629.07 240.096 1613.34 239.478 1596.28C239.312 1591.73 245.955 1585.13 249.894 1579.76C263.831 1560.75 270.7 1541.99 270.268 1519.63C269.882 1499.76 265.784 1479.81 274.228 1457.89C276.068 1453.11 272.826 1446.38 270.293 1441.75C263.89 1430.04 268.829 1417.95 276.322 1406.3C282.393 1396.86 289.958 1388.2 297.17 1379.45C310.111 1363.76 323.085 1348.06 336.635 1332.92C338.142 1331.24 344.339 1331.97 346.789 1333.69C349.454 1335.57 350.741 1339.67 351.826 1343.23C354.427 1351.75 356.631 1360.48 358.961 1369.14C372.378 1353.79 378.189 1336.13 382.788 1317.69C387.998 1296.81 394.092 1275.91 401.037 1255.2C402.755 1250.08 409.248 1245.66 414.115 1240.28C419.699 1258.42 419.946 1275.54 413.434 1294.76ZM430.879 1189.96C429.995 1189.2 428.296 1188.53 428.392 1187.66C428.546 1186.26 429.22 1184.8 429.871 1183.35C432.594 1185.01 433.03 1187.19 430.879 1189.96ZM437.761 1165.69C436.138 1170.25 433.192 1174.58 430.394 1178.94C430.3 1176.04 430.222 1173.14 430.369 1170.2C430.468 1168.23 430.796 1165.89 431.85 1164.13C439.51 1151.29 438.892 1162.52 437.761 1165.69ZM591.337 1146.76C589.904 1149.85 588.457 1152.93 587.01 1156.02C586.186 1155.04 584.457 1154 584.7 1153.1C585.577 1149.87 587.119 1146.68 588.411 1143.47C589.387 1144.56 590.362 1145.66 591.337 1146.76ZM402.992 993.515C397.818 1018.94 388.499 1043.09 368.447 1063.25C365.378 1066.33 361.105 1068.06 357.426 1070.49C347.757 1076.9 341.061 1085.96 336.374 1096.25C323.203 1125.2 314.199 1153.63 325.971 1180.46C330.513 1190.82 325.112 1200.12 313.755 1206.66C307.888 1210.04 304.828 1214.58 302.348 1221.59C285.519 1269.23 269.646 1300.07 244.523 1340.66C232.548 1360 223.598 1380.01 230.661 1400.51C232.365 1405.45 230.828 1412.28 230.431 1418.3C230.131 1422.87 221.607 1430 216.327 1430.42C210.833 1430.86 207.816 1425.77 209.541 1417.86C210.865 1411.8 212.896 1405.74 214.589 1399.77C193.565 1396.06 193.62 1396.09 183.207 1410.11C177.867 1417.3 172.737 1424.79 166.585 1431.17C164.364 1433.47 159.344 1433.38 155.803 1433.4C154.66 1433.4 153.912 1430.39 153.442 1428.54C152.979 1426.72 152.619 1424.62 153.031 1422.63C158.165 1397.91 182.56 1347.01 198.367 1327.49C209.731 1313.45 220.66 1299.05 232.34 1285.3C247.808 1267.08 246.58 1249.68 242.563 1232.09C241.185 1226.05 232.858 1223.95 228.523 1229.13C224.313 1234.17 221.136 1240.05 217.207 1245.36C216.144 1246.8 213.061 1248.71 212.527 1248.31C209.887 1246.35 206.813 1244.21 205.772 1241.1C204.626 1237.68 205.028 1233.16 205.622 1229.05C208.742 1207.48 217.704 1187.53 232.538 1169.34C248.3 1150.01 262.981 1129.55 280.12 1111.67C299.764 1091.17 313.235 1069.09 319.494 1043.06C323.256 1027.42 329.853 1014.89 347.357 1010.13C352.494 1008.73 357.171 1001.27 362.494 997.392C365.493 995.208 371.457 992.549 372.538 993.72C381.507 1003.45 391.274 988.063 400.138 989.058C401.552 989.217 403.31 991.954 402.992 993.515ZM374.282 799.081L372.264 796.483L376.266 794.936L374.282 799.081ZM740.913 668.121C738.013 671.204 734.543 673.707 731.302 676.441C730.569 675.368 728.927 674.123 729.249 673.25C731.622 666.818 740.677 659.642 742.167 662.615C742.765 663.81 742.046 666.917 740.913 668.121ZM793.695 705.393L791.062 703.205L795.89 700.101L793.695 705.393ZM1167.44 172.669C1166.98 168.962 1166.51 165.256 1166.02 161.55C1167.93 164.731 1168.34 168.462 1167.44 172.669ZM1173.22 151.239C1171.39 153.667 1168.35 155.229 1165.49 156.919C1165.25 153.589 1164.87 150.275 1165.33 146.891C1165.49 145.688 1168.65 143.126 1170.04 143.125C1175.03 143.121 1176.65 146.659 1173.22 151.239ZM1148.72 103.206C1146.78 108.22 1144.15 110.999 1139.39 110.103C1137.93 109.83 1136.24 107.64 1136.34 106.048C1138.03 77.3782 1140.4 48.6898 1164.22 12.5699C1162.62 49.1759 1159.26 75.9915 1148.72 103.206ZM1115.9 -43.9823C1115.54 -40.4477 1112.62 -36.5959 1110.82 -32.8831C1107.27 -31.2132 1102.89 -27.7076 1100.41 -28.4271C1098.03 -29.1151 1096.31 -34.0561 1096.71 -37.3728C1097.13 -40.8786 1099.8 -45.3245 1102.58 -48.1601C1105.34 -50.9641 1109.47 -52.268 1112.99 -54.2305C1114.06 -50.8272 1116.25 -47.5621 1115.9 -43.9823ZM1253.8 -148.639C1254.9 -147.515 1256.09 -145.258 1255.56 -143.836C1250.19 -129.594 1245.64 -114.963 1238.48 -101.377C1233.08 -91.136 1225.02 -84.7485 1213.65 -91.1618C1206.42 -95.2475 1199.04 -84.5913 1192.19 -79.4826C1187.86 -76.2604 1184.41 -75.5791 1181.19 -78.5743C1180.53 -80.3004 1178.79 -82.338 1179.4 -83.7001C1182.92 -91.5703 1185.35 -101.63 1191.18 -106.611C1209.7 -122.44 1229.52 -136.412 1249 -150.831C1249.88 -151.487 1252.59 -149.879 1253.8 -148.639ZM1317.51 -199.111L1312.91 -196.457L1315.34 -201.411L1317.51 -199.111Z" fill="#2892FF"/>
<path d="M682.191 1149.56C680.65 1152.96 680.091 1157.87 681.341 1160.63C684.379 1167.33 697.364 1167.49 702.85 1159.35C703.235 1155.68 704.83 1149.51 704.06 1144.24C703.633 1141.32 699.648 1138.22 696.569 1138.12C690.073 1137.9 685.007 1143.35 682.191 1149.56Z" fill="#2892FF"/>
<path d="M672.65 1202.9L675.448 1200.14L672.076 1199.26L672.65 1202.9Z" fill="#2892FF"/>
</svg>
