<svg width="40" height="40" viewBox="0 0 40 40" fill="none" xmlns="http://www.w3.org/2000/svg">
<path d="M8.85277 17.9358C13.7167 9.31194 16.1487 5 19.9999 5C23.8512 5 26.2831 9.31194 31.1471 17.9358L31.7532 19.0104C35.7951 26.1768 37.816 29.76 35.9895 32.38C34.163 35 29.644 35 20.606 35H19.3938C10.3559 35 5.83687 35 4.01035 32.38C2.18382 29.76 4.20477 26.1768 8.24667 19.0105L8.85277 17.9358Z" stroke="#E25100" stroke-width="2"/>
<path d="M20 13.333V21.6663" stroke="#E25100" stroke-width="2" stroke-linecap="round"/>
<mask id="path-3-inside-1_2224_3001" fill="white">
<ellipse cx="19.9999" cy="26.6667" rx="1.66667" ry="1.66667"/>
</mask>
<ellipse cx="19.9999" cy="26.6667" rx="1.66667" ry="1.66667" fill="#E25100"/>
<path d="M19.6666 26.6667C19.6666 26.4826 19.8158 26.3333 19.9999 26.3333V30.3333C22.025 30.3333 23.6666 28.6917 23.6666 26.6667H19.6666ZM19.9999 26.3333C20.184 26.3333 20.3333 26.4826 20.3333 26.6667H16.3333C16.3333 28.6917 17.9749 30.3333 19.9999 30.3333V26.3333ZM20.3333 26.6667C20.3333 26.8508 20.184 27 19.9999 27V23C17.9749 23 16.3333 24.6416 16.3333 26.6667H20.3333ZM19.9999 27C19.8158 27 19.6666 26.8508 19.6666 26.6667H23.6666C23.6666 24.6416 22.025 23 19.9999 23V27Z" fill="#E25100" mask="url(#path-3-inside-1_2224_3001)"/>
</svg>
