<svg width="50" height="76" viewBox="0 0 50 76" fill="none" xmlns="http://www.w3.org/2000/svg">
<path d="M30.7212 9.87616H49.9999V61.4994H43.0711C36.2555 61.4994 30.7212 55.9339 30.7212 49.0768V9.87616Z" fill="#C7C7C7"/>
<path d="M47.9783 61.4994L16.9691 0.180084H9.17667C4.10894 0.180084 0 4.3132 0 9.41076V61.4994H17.9793V35.7324L26.07 51.7309C29.1006 57.7244 35.2196 61.4994 41.9055 61.4994H47.9796H47.9783Z" fill="#B8529E"/>
<path d="M40.3606 19.5723C45.6842 19.5723 49.9999 15.2312 49.9999 9.87617C49.9999 4.52117 45.6842 0.180084 40.3606 0.180084C35.0369 0.180084 30.7212 4.52117 30.7212 9.87617C30.7212 15.2312 35.0369 19.5723 40.3606 19.5723Z" fill="#B8529E"/>
<g opacity="0.99">
<path d="M0.0373535 63.9506H2.22742L7.35941 71.5691V63.9506H9.6433V75.529H7.44681L2.32124 67.9337V75.529H0.0373535V63.9506Z" fill="#C7C7C7"/>
<path d="M12.3911 63.9506H18.9394V66.107H14.6583V68.2014H18.9394V70.319H14.6583V73.3648H18.9394V75.529H12.3911V63.9506Z" fill="#C7C7C7"/>
<path d="M20.1578 63.9506H22.5047L25.5225 72.1755L28.5839 63.9506H30.9282L26.6059 75.529H24.4043L20.1553 63.9506H20.1578Z" fill="#C7C7C7"/>
<path d="M32.6802 63.9506H34.9718V71.4373C34.9718 72.0824 35.0296 72.5387 35.1466 72.8064C35.2635 73.074 35.4563 73.2873 35.7262 73.4476C35.9961 73.6079 36.32 73.6881 36.7004 73.6881C37.1027 73.6881 37.4497 73.5989 37.7402 73.4204C38.0307 73.242 38.2324 73.0158 38.3443 72.7404C38.4561 72.4651 38.5113 71.9389 38.5113 71.1632V63.9519H40.8029V70.8542C40.8029 72.019 40.7348 72.827 40.5986 73.2782C40.4624 73.7294 40.2027 74.1651 39.8197 74.5853C39.4367 75.0054 38.9946 75.3157 38.4946 75.5174C37.9947 75.7191 37.4125 75.8199 36.7493 75.8199C35.8792 75.8199 35.1221 75.6273 34.4782 75.242C33.8343 74.8568 33.3729 74.3732 33.0966 73.7941C32.819 73.2149 32.6802 72.2349 32.6802 70.8542V63.9519V63.9506Z" fill="#C7C7C7"/>
<path d="M49.747 65.5252L48.0556 66.9654C47.4618 66.1678 46.8578 65.7696 46.2421 65.7696C45.9427 65.7696 45.6972 65.8471 45.507 66.001C45.3168 66.1561 45.2216 66.3307 45.2216 66.5246C45.2216 66.7185 45.2898 66.9021 45.426 67.0753C45.6111 67.3067 46.1689 67.8019 47.1007 68.5633C47.9721 69.2666 48.5003 69.7101 48.6854 69.8936C49.1481 70.3448 49.4758 70.7766 49.6699 71.189C49.8627 71.6014 49.9604 72.0513 49.9604 72.5387C49.9604 73.489 49.6198 74.2724 48.9399 74.8917C48.26 75.5109 47.3719 75.8199 46.2781 75.8199C45.4234 75.8199 44.6793 75.6182 44.0456 75.2136C43.412 74.8102 42.8684 74.1741 42.4172 73.3092L44.3361 72.191C44.9132 73.2149 45.5777 73.7255 46.3295 73.7255C46.7215 73.7255 47.0506 73.6156 47.3179 73.3946C47.5839 73.1748 47.7176 72.9201 47.7176 72.6318C47.7176 72.3694 47.6161 72.1069 47.4156 71.8445C47.2138 71.5821 46.7704 71.1813 46.084 70.6409C44.777 69.6118 43.9325 68.8193 43.5521 68.2595C43.1704 67.701 42.9802 67.1438 42.9802 66.5866C42.9802 65.7838 43.2976 65.0947 43.9313 64.5207C44.5649 63.9467 45.3476 63.6584 46.2781 63.6584C46.877 63.6584 47.4464 63.7929 47.9888 64.0605C48.5299 64.3281 49.1172 64.8155 49.7483 65.5239L49.747 65.5252Z" fill="#C7C7C7"/>
</g>
</svg>