<svg width="54" height="80" viewBox="0 0 54 80" fill="none" xmlns="http://www.w3.org/2000/svg">
<g id="Nevus svg">
<path id="Vector" d="M32.6836 10.2549H53.1936V64.8539H45.8223C38.5713 64.8539 32.6836 58.9675 32.6836 51.7152V10.2549Z" fill="#989898"/>
<path id="Vector_2" d="M51.0426 64.854L18.0529 0H9.76277C4.37137 0 0 4.37137 0 9.76277V64.854H19.1276V37.6017L27.735 54.5225C30.9592 60.8614 37.4691 64.854 44.5819 64.854H51.044H51.0426Z" fill="#B8529E"/>
<path id="Vector_3" d="M42.9386 20.51C48.6023 20.51 53.1936 15.9187 53.1936 10.255C53.1936 4.59132 48.6023 0 42.9386 0C37.2749 0 32.6836 4.59132 32.6836 10.255C32.6836 15.9187 37.2749 20.51 42.9386 20.51Z" fill="#B8529E"/>
<g id="Group" opacity="0.99">
<path id="Vector_4" d="M0.0395508 67.4463H2.36949L7.82925 75.504V67.4463H10.259V79.6921H7.92223L2.4693 71.659V79.6921H0.0395508V67.4463Z" fill="#333333"/>
<path id="Vector_5" d="M13.1821 67.4463H20.1487V69.727H15.5941V71.9421H20.1487V74.1818H15.5941V77.4032H20.1487V79.6921H13.1821V67.4463Z" fill="#333333"/>
<path id="Vector_6" d="M21.4451 67.4463H23.9419L27.1524 76.1453L30.4094 67.4463H32.9034L28.305 79.6921H25.9628L21.4424 67.4463H21.4451Z" fill="#333333"/>
<path id="Vector_7" d="M34.7671 67.4463H37.205V75.3645C37.205 76.0468 37.2666 76.5295 37.391 76.8125C37.5154 77.0956 37.7205 77.3212 38.0077 77.4907C38.2948 77.6603 38.6394 77.7451 39.0441 77.7451C39.4721 77.7451 39.8413 77.6507 40.1503 77.462C40.4593 77.2733 40.674 77.034 40.7929 76.7428C40.9119 76.4516 40.9707 75.895 40.9707 75.0746V67.4477H43.4086V74.7479C43.4086 75.9798 43.3362 76.8344 43.1912 77.3116C43.0463 77.7888 42.7701 78.2496 42.3626 78.694C41.9552 79.1384 41.4848 79.4665 40.9529 79.6798C40.421 79.8931 39.8016 79.9998 39.0961 79.9998C38.1704 79.9998 37.365 79.796 36.68 79.3886C35.995 78.9811 35.5041 78.4697 35.2101 77.8572C34.9148 77.2446 34.7671 76.2082 34.7671 74.7479V67.4477V67.4463Z" fill="#333333"/>
<path id="Vector_8" d="M52.9239 69.1121L51.1245 70.6353C50.4928 69.7917 49.8501 69.3706 49.1952 69.3706C48.8766 69.3706 48.6154 69.4526 48.413 69.6153C48.2107 69.7794 48.1095 69.964 48.1095 70.1691C48.1095 70.3742 48.182 70.5683 48.3269 70.7516C48.5238 70.9963 49.1172 71.52 50.1085 72.3254C51.0356 73.0692 51.5976 73.5382 51.7945 73.7323C52.2867 74.2095 52.6354 74.6662 52.8418 75.1024C53.0469 75.5386 53.1509 76.0144 53.1509 76.5299C53.1509 77.5349 52.7885 78.3635 52.0652 79.0185C51.3419 79.6734 50.3971 80.0002 49.2334 80.0002C48.3242 80.0002 47.5325 79.7869 46.8584 79.3589C46.1843 78.9323 45.6059 78.2596 45.126 77.3448L47.1674 76.1621C47.7813 77.245 48.4883 77.7851 49.2881 77.7851C49.7052 77.7851 50.0552 77.6689 50.3396 77.4351C50.6227 77.2026 50.7649 76.9333 50.7649 76.6284C50.7649 76.3508 50.6568 76.0732 50.4435 75.7957C50.2289 75.5181 49.7571 75.0942 49.027 74.5227C47.6364 73.4343 46.7381 72.5961 46.3333 72.004C45.9272 71.4133 45.7249 70.824 45.7249 70.2347C45.7249 69.3856 46.0626 68.6568 46.7367 68.0497C47.4108 67.4426 48.2435 67.1377 49.2334 67.1377C49.8706 67.1377 50.4764 67.2799 51.0534 67.5629C51.629 67.846 52.2539 68.3615 52.9253 69.1108L52.9239 69.1121Z" fill="#333333"/>
</g>
</g>
</svg>