<svg width="330" height="220" viewBox="0 0 330 220" fill="none" xmlns="http://www.w3.org/2000/svg">
<path d="M330 0H0V220H330V0Z" fill="white"/>
<path d="M217.242 163.262C224.603 157.721 295.538 99.5547 219.591 44.3932C143.644 -10.7683 133.837 69.8159 95.9177 88.4785C57.9981 107.141 92.2906 181.534 135.253 188.558C173.548 194.82 201.638 175.006 217.242 163.262Z" fill="#2892FF"/>
<path d="M200.571 179.799C200.27 178.607 135.071 220.176 95.7676 169.066" stroke="#000E17" stroke-width="0.423077" stroke-miterlimit="10" stroke-linecap="round"/>
<path d="M93.1975 165.749C93.1975 165.749 56.9448 111.368 88.5289 89.8281" stroke="#000E17" stroke-width="0.423077" stroke-miterlimit="10" stroke-linecap="round"/>
<path d="M160.901 158.647C161.286 158.648 161.662 158.762 161.981 158.977C162.301 159.191 162.549 159.496 162.696 159.851C162.843 160.207 162.881 160.598 162.805 160.976C162.729 161.353 162.544 161.699 162.271 161.971C161.999 162.243 161.652 162.428 161.275 162.503C160.898 162.578 160.506 162.539 160.151 162.392C159.795 162.245 159.492 161.995 159.278 161.676C159.064 161.356 158.95 160.98 158.949 160.595C158.948 160.338 158.998 160.084 159.095 159.847C159.193 159.61 159.337 159.394 159.518 159.213C159.7 159.032 159.916 158.889 160.153 158.791C160.39 158.694 160.645 158.645 160.901 158.647Z" fill="#000E17"/>
<path opacity="0.96" d="M157.148 160.321C157.491 160.322 157.827 160.425 158.111 160.618C158.396 160.81 158.617 161.082 158.747 161.4C158.877 161.718 158.909 162.068 158.839 162.404C158.77 162.74 158.602 163.049 158.357 163.289C158.112 163.53 157.801 163.693 157.464 163.756C157.126 163.82 156.777 163.782 156.461 163.647C156.146 163.512 155.877 163.286 155.69 162.998C155.503 162.71 155.405 162.373 155.41 162.029C155.415 161.573 155.601 161.137 155.927 160.817C156.252 160.497 156.691 160.318 157.148 160.321Z" fill="#000E17"/>
<path opacity="0.86" d="M155.561 164.172C156.432 164.168 157.158 164.872 157.161 165.723C157.164 166.648 156.468 167.362 155.562 167.363C155.145 167.354 154.748 167.182 154.456 166.884C154.164 166.585 154 166.185 154 165.767C154 165.35 154.164 164.949 154.456 164.651C154.748 164.353 155.145 164.181 155.562 164.172H155.561Z" fill="#000E17"/>
<path opacity="0.77" d="M156.821 170.523C156.533 170.519 156.252 170.43 156.014 170.267C155.776 170.104 155.592 169.874 155.485 169.606C155.378 169.338 155.353 169.044 155.413 168.762C155.473 168.48 155.615 168.221 155.822 168.02C156.028 167.819 156.29 167.683 156.574 167.631C156.857 167.578 157.15 167.611 157.415 167.725C157.68 167.839 157.906 168.029 158.063 168.271C158.22 168.513 158.301 168.796 158.297 169.085C158.296 169.277 158.256 169.466 158.181 169.642C158.106 169.819 157.997 169.978 157.859 170.112C157.722 170.246 157.56 170.351 157.381 170.421C157.203 170.492 157.013 170.526 156.821 170.523Z" fill="#000E17"/>
<path opacity="0.68" d="M160.377 172.177C160.112 172.176 159.854 172.095 159.634 171.946C159.415 171.798 159.245 171.587 159.145 171.341C159.046 171.096 159.021 170.826 159.075 170.567C159.128 170.307 159.258 170.069 159.447 169.883C159.635 169.697 159.875 169.571 160.136 169.522C160.396 169.472 160.665 169.501 160.909 169.604C161.153 169.708 161.361 169.881 161.507 170.103C161.652 170.324 161.729 170.584 161.726 170.849C161.723 171.204 161.58 171.543 161.327 171.792C161.074 172.041 160.732 172.18 160.377 172.177Z" fill="#000E17"/>
<path opacity="0.52" d="M165.379 169.623C165.38 169.861 165.311 170.094 165.179 170.293C165.048 170.492 164.86 170.648 164.641 170.74C164.421 170.832 164.178 170.857 163.944 170.812C163.71 170.767 163.495 170.653 163.326 170.485C163.156 170.317 163.041 170.103 162.993 169.869C162.945 169.636 162.968 169.393 163.058 169.173C163.149 168.952 163.302 168.763 163.5 168.63C163.698 168.496 163.93 168.425 164.169 168.424C164.327 168.423 164.484 168.453 164.63 168.513C164.777 168.573 164.91 168.661 165.023 168.772C165.135 168.883 165.224 169.016 165.286 169.162C165.347 169.308 165.378 169.464 165.379 169.623Z" fill="#000E17"/>
<path opacity="0.45" d="M165.913 167.151C165.69 167.149 165.472 167.082 165.287 166.956C165.103 166.831 164.959 166.653 164.875 166.446C164.792 166.239 164.771 166.012 164.817 165.793C164.862 165.575 164.971 165.374 165.131 165.218C165.29 165.061 165.492 164.956 165.712 164.914C165.931 164.873 166.158 164.897 166.363 164.985C166.569 165.072 166.744 165.219 166.866 165.406C166.988 165.593 167.052 165.812 167.049 166.035C167.045 166.333 166.923 166.618 166.71 166.826C166.498 167.035 166.211 167.152 165.913 167.151Z" fill="#000E17"/>
<path opacity="0.32" d="M163.564 162.245C163.566 162.05 163.626 161.859 163.736 161.698C163.845 161.537 164.001 161.412 164.181 161.339C164.362 161.266 164.561 161.248 164.752 161.287C164.943 161.327 165.118 161.422 165.255 161.561C165.392 161.7 165.484 161.876 165.521 162.068C165.558 162.259 165.537 162.457 165.461 162.637C165.386 162.817 165.258 162.97 165.096 163.078C164.933 163.185 164.742 163.242 164.547 163.241C164.417 163.24 164.288 163.214 164.168 163.164C164.049 163.113 163.94 163.039 163.849 162.947C163.757 162.854 163.685 162.745 163.637 162.624C163.588 162.504 163.563 162.375 163.564 162.245Z" fill="#000E17"/>
<path d="M183.214 137.693C183.214 137.693 227.641 143.245 239.224 129.845C250.808 116.444 199.204 105.334 193.459 104.76C187.713 104.186 159.81 125.058 159.81 125.058L183.214 137.693Z" fill="white" stroke="#000E17" stroke-width="0.645028" stroke-miterlimit="10"/>
<path d="M187.139 118.83C187.139 118.83 204.086 112.873 220.649 114.99C220.649 114.99 224.671 114.187 206.574 112.948C188.478 111.708 188.862 109.884 188.862 109.884L187.139 118.83Z" fill="#000E17"/>
<path d="M170.861 125.006C170.861 125.006 176.75 123.642 183.284 126.156C189.818 128.669 192.691 131.685 191.686 136.136C190.68 140.588 180.412 139.655 164.758 137.211L170.861 125.006Z" fill="#000E17"/>
<path d="M136.969 60.8717C136.969 60.8717 141.181 61.1598 144.021 59.9784C146.862 58.7969 142.946 74.7871 138.41 75.9966C133.873 77.206 120.484 79.4367 116.989 76.6986C116.989 76.6986 120.52 73.5874 120.127 72.1027C119.735 70.6181 136.969 60.8717 136.969 60.8717Z" fill="white" stroke="#000E17" stroke-width="0.645028" stroke-miterlimit="10"/>
<path d="M134.19 70.0716C134.19 70.0716 131.027 75.6543 128.03 77.1357C128.03 77.1357 121.282 77.6926 119.59 75.4576C117.899 73.2225 127.393 65.2607 127.393 65.2607" fill="#000E17"/>
<path d="M111.5 61.5751C111.5 61.5751 115.737 71.0291 121.821 72.8007C127.904 74.5724 139.254 71.7784 136.681 59.3003C134.058 46.5728 124.046 46.7824 124.046 46.7824L109.493 55.7344C109.493 55.7344 108.389 58.7499 111.5 61.5751Z" fill="white" stroke="#000E17" stroke-width="0.645028" stroke-miterlimit="10"/>
<path d="M117.694 57.8452C120.183 61.0048 124.857 53.3859 127.107 54.0084C129.357 54.6308 131.128 55.0135 132.612 52.5237C134.095 50.0339 135.525 55.4468 135.525 55.4468C135.525 55.4468 137.495 52.5237 135.772 50.1307C134.048 47.7376 136.251 48.7406 135.724 46.7787C135.197 44.8167 132.732 46.4207 132.229 44.7683C131.726 43.116 130.939 41.5131 128.83 41.8721C126.721 42.2312 125.527 45.2231 123.684 43.3568C121.84 41.4905 119.782 43.0934 118.514 44.8167C117.245 46.54 114.66 42.2549 112.41 44.2663C110.16 46.2777 111.101 52.556 109.122 52.7312C107.143 52.9064 104.846 55.7316 107.144 58.2688C107.144 58.2688 108.364 58.9632 107.671 60.0877C106.977 61.2122 107.431 62.4098 108.173 63.0076C108.915 63.6053 109.418 63.6526 109.011 64.9953C108.605 66.3381 108.891 68.729 113.44 69.0397C113.44 69.0397 115.21 69.3514 116.313 68.9601C116.313 68.9601 114.916 68.0506 115.49 66.9336C116.798 64.4127 113.77 64.3761 114.34 61.9884C114.911 59.6007 113.606 59.9286 113.064 58.4945C112.523 57.0604 115.205 54.6889 117.694 57.8452Z" fill="#000E17"/>
<path d="M109.976 78.5464C109.976 78.5464 107.385 80.0514 103.365 86.9479C99.344 93.8443 92.4497 111.434 105.375 119.98L119.307 126.156L186.951 110.932C186.951 110.932 185.801 90.2504 184.221 82.9261C184.221 82.9261 197.243 82.1607 200.977 80.8674C200.977 80.8674 203.467 101.668 210.867 100.807C210.867 100.807 212.071 105.012 212.519 106.161C212.519 106.161 218.71 106.384 220.242 104.31C220.242 104.31 219.444 98.9164 219.572 98.5046C219.572 98.5046 223.506 96.8609 220.777 85.8019C218.049 74.7429 217.688 62.6798 196.29 58.0119C174.891 53.344 155.502 54.2783 142.074 59.3761C142.074 59.3761 146.311 67.8486 136.042 74.2763C125.773 80.704 117.7 74.5988 117.7 74.5988L109.976 78.5464Z" fill="white" stroke="#000E17" stroke-width="0.645028" stroke-miterlimit="10"/>
<path d="M120.921 100.06C120.921 100.06 150.73 102.484 183.704 81.7188" stroke="#2892FF" stroke-width="0.645028" stroke-miterlimit="10" stroke-linecap="round"/>
<path d="M120.921 105.833C120.921 105.833 156.193 113.1 184.721 87.9346" stroke="#2892FF" stroke-width="0.645028" stroke-miterlimit="10" stroke-linecap="round"/>
<path d="M142.712 114.99C142.712 114.99 131.942 113.301 115.713 116.102C115.713 116.102 110.851 122.138 104.425 119.312C104.425 119.312 91.2016 128.02 103.169 136.352C115.136 144.685 171.149 138.171 171.149 138.171C171.149 138.171 177.084 126.969 171.149 121.033C165.213 115.097 142.712 114.99 142.712 114.99Z" fill="white" stroke="#000E17" stroke-width="0.645028" stroke-miterlimit="10"/>
<path d="M148.028 119.983C124.807 118.693 114.206 121.037 114.206 121.037C114.206 121.037 110.623 120.079 117.661 117.781C123.179 115.98 137.668 117.648 143.623 118.211C145.263 118.364 148.028 119.983 148.028 119.983Z" fill="#000E17"/>
<path d="M213.174 106.167C213.174 106.167 213.471 108.102 213.087 109.607C212.703 111.112 217.237 115.575 221.992 117.363C221.992 117.363 223.747 117.65 223.332 116.503C222.917 115.355 220.651 114.556 220.077 113.215C219.503 111.874 225.619 113.567 225.619 113.567L228.669 114.874C228.669 114.874 228.592 112.912 227.497 111.715C225.772 109.829 222.758 108.045 221.251 107.215C219.992 106.522 219.723 104.812 219.723 104.812C217.624 105.57 215.428 106.026 213.201 106.167H213.174Z" fill="white" stroke="#000E17" stroke-width="0.645028" stroke-miterlimit="10"/>
<path d="M219.82 113.389C219.82 113.389 218.592 111.634 219.15 111.298C219.708 110.963 224.428 112.974 224.428 112.974C224.428 112.974 220.012 112.096 219.82 113.389Z" fill="#000E17"/>
<path d="M192.722 89.8203H144.794C143.487 89.8203 142.428 90.8797 142.428 92.1865V118.667C142.428 119.974 143.487 121.033 144.794 121.033H192.722C194.028 121.033 195.088 119.974 195.088 118.667V92.1865C195.088 90.8797 194.028 89.8203 192.722 89.8203Z" fill="#000E17"/>
<path d="M168.756 108.155C170.038 108.155 171.078 107.115 171.078 105.833C171.078 104.55 170.038 103.511 168.756 103.511C167.473 103.511 166.434 104.55 166.434 105.833C166.434 107.115 167.473 108.155 168.756 108.155Z" fill="white"/>
<path d="M115.712 116.102C119.303 110.716 120.882 104.685 121.431 97.5035C121.979 90.3221 116.163 89.5804 116.163 89.5804C116.163 89.5804 116.45 82.8301 115.971 83.1892C115.493 83.5483 110.011 83.5246 109.199 82.8301C108.386 82.1357 108.097 82.8301 108.097 82.8301V89.8179C106.162 89.6739 104.291 90.0329 102.137 99.5116C99.9823 108.99 105.727 114.992 105.727 114.992" stroke="#000E17" stroke-width="0.645028" stroke-miterlimit="10" stroke-linecap="round"/>
<path d="M182.448 74.3333L183.908 82.9262C183.908 82.9262 194.284 82.0898 195.87 81.8608C197.455 81.6318 188.431 80.8298 186.277 77.9476C184.339 75.3535 182.017 71.5092 182.448 74.3333Z" fill="#000E17"/>
<path d="M210.661 100.544C210.661 100.544 212.624 100.304 213.734 100.064C214.486 99.9019 212.13 104.014 212.297 105.737L210.661 100.544Z" fill="#000E17"/>
<path d="M219.569 98.501C219.569 98.501 218.62 99.3309 216.729 99.6179" stroke="#000E17" stroke-width="0.645028" stroke-miterlimit="10" stroke-linecap="round"/>
<path d="M200.161 77.1816C200.161 77.1816 200.975 79.0479 200.975 80.8669" stroke="#000E17" stroke-width="0.645028" stroke-miterlimit="10" stroke-linecap="round"/>
<path d="M121.433 97.1445C121.433 97.1445 123.039 100.448 121.962 106.336C120.885 112.224 126.127 114.99 126.127 114.99L115.715 116.102C115.715 116.102 121.124 107.987 121.433 97.1445Z" fill="#000E17"/>
<path d="M109.602 83.0253C109.602 83.0253 109.827 71.9147 111.789 70.9579C113.751 70.0011 118.438 71.8287 119.543 73.0209C120.647 74.2131 120.358 76.2235 117.247 77.3727C117.247 77.3727 116.998 82.8006 114.311 83.3564C111.152 84.0111 109.602 83.0253 109.602 83.0253Z" fill="white" stroke="#000E17" stroke-width="0.645028" stroke-miterlimit="10"/>
<path d="M116.989 77.1821C117.329 75.2642 116.989 74.0537 116.989 74.0537C116.989 74.0537 117.999 74.4525 118.334 74.345C118.67 74.2375 117.568 74.8955 117.582 75.2664C117.596 75.6373 117.393 77.3176 117.393 77.3176L116.989 77.1821Z" fill="#000E17"/>
<path d="M108.102 89.8203C108.102 89.8203 110.815 90.2826 111.661 90.0278" stroke="#000E17" stroke-width="0.645028" stroke-miterlimit="10" stroke-linecap="round"/>
<path d="M116.163 89.8808C116.163 89.8808 114.408 90.0582 113.897 89.8808C113.386 89.7034 116.253 85.4258 116.253 85.4258L116.163 89.8808Z" fill="#000E17"/>
<path d="M144.574 58.4902C144.574 58.4902 151.182 81.4167 120.127 79.5493" stroke="#000E17" stroke-width="0.645028" stroke-miterlimit="10" stroke-linecap="round"/>
<path d="M134.027 37.0549C134.027 37.0549 143.797 31.1926 141.697 43.7965" stroke="#000E17" stroke-width="0.645028" stroke-miterlimit="10" stroke-linecap="round"/>
<path d="M148.972 38.8633C148.972 38.8633 136.7 35.9231 145.524 28.6504" stroke="#000E17" stroke-width="0.645028" stroke-miterlimit="10" stroke-linecap="round"/>
<path d="M140.325 25C140.325 25 143.402 37.2394 132.874 32.7833" stroke="#000E17" stroke-width="0.645028" stroke-miterlimit="10" stroke-linecap="round"/>
<path d="M120.878 65.3177C121.19 65.0943 121.237 64.6256 120.983 64.2709C120.729 63.9161 120.27 63.8096 119.958 64.033C119.646 64.2564 119.6 64.7251 119.854 65.0798C120.108 65.4346 120.567 65.5411 120.878 65.3177Z" fill="#000E17"/>
<path d="M130.092 60.1946C130.404 59.9712 130.451 59.5026 130.197 59.1478C129.943 58.7931 129.484 58.6866 129.172 58.91C128.86 59.1334 128.813 59.602 129.068 59.9568C129.322 60.3115 129.781 60.418 130.092 60.1946Z" fill="#000E17"/>
<path d="M120.714 57.8447C120.714 57.8447 120.943 60.4248 117.879 61.9826" stroke="#000E17" stroke-width="0.645028" stroke-miterlimit="10" stroke-linecap="round"/>
<path d="M130.343 57.0557C130.343 57.0557 128.408 58.7757 125.331 57.2513" stroke="#000E17" stroke-width="0.645028" stroke-miterlimit="10" stroke-linecap="round"/>
<path d="M124.396 62.4365C124.396 62.4365 125.221 63.9588 125.181 64.6662C125.089 66.3056 125.704 67.5688 127.779 65.5843" stroke="#000E17" stroke-width="0.645028" stroke-miterlimit="10" stroke-linecap="round"/>
<path d="M128.594 69.0758C128.594 69.0758 129.137 67.0332 130.669 66.7773" stroke="#000E17" stroke-width="0.645028" stroke-miterlimit="10" stroke-linecap="round"/>
</svg>
