<svg width="330" height="220" viewBox="0 0 330 220" fill="none" xmlns="http://www.w3.org/2000/svg">
<path d="M330 0H0V220H330V0Z" fill="white"/>
<path d="M117.626 47.5531C109.31 52.0659 28.4533 100.409 97.2477 167.936C166.042 235.463 188.2 155.095 229.539 141.879C270.878 128.663 247.308 47.9084 204.734 34.2691C166.785 22.1127 135.253 37.9859 117.626 47.5531Z" fill="#2892FF"/>
<path d="M85.9486 132.616C90.9769 134.922 104.175 141.738 108.019 151.288C108.072 151.421 108.167 151.533 108.289 151.608L111.014 153.26C111.095 153.309 111.186 153.34 111.281 153.351C111.376 153.361 111.471 153.351 111.562 153.321C113.128 152.798 121.684 151.221 141.654 169.081C142.041 169.428 142.524 169.65 143.038 169.719C143.553 169.788 144.077 169.7 144.541 169.468L178.365 152.519C178.467 152.468 178.554 152.392 178.618 152.297C178.681 152.202 178.719 152.093 178.727 151.979C178.736 151.865 178.715 151.751 178.666 151.648C178.617 151.545 178.542 151.456 178.448 151.391L163.662 141.016C163.576 140.955 163.477 140.916 163.373 140.902L86.9957 130.389C86.8649 130.371 86.7319 130.393 86.6136 130.451L85.9176 130.797C85.7473 130.882 85.6045 131.013 85.5057 131.176C85.407 131.339 85.3563 131.526 85.3595 131.716C85.3628 131.906 85.4198 132.092 85.5241 132.251C85.6283 132.41 85.7755 132.537 85.9486 132.616Z" fill="#2892FF"/>
<path d="M190.136 138.336C228.87 138.336 260.271 134.222 260.271 129.146C260.271 124.071 228.87 119.957 190.136 119.957C151.401 119.957 120 124.071 120 129.146C120 134.222 151.401 138.336 190.136 138.336Z" fill="#000E17"/>
<path d="M139.631 84.5182C139.631 84.5182 143.791 80.5519 145.096 79.8425C146.402 79.1331 149.98 76.8972 150.5 76.2738C151.019 75.6505 151.664 77.2843 150.331 78.3808C149.393 79.1522 147.572 80.8861 146.624 81.386L146.049 80.9503C146.049 80.9503 146.825 81.1963 148.009 83.3893C149.194 85.5822 142.764 88.5917 142.764 88.5917L139.631 84.5182Z" fill="white" stroke="#000E17" stroke-width="0.423077" stroke-miterlimit="10"/>
<path d="M152.005 71.2918C152.005 71.2918 151.196 73.9114 152.358 78.3474C152.358 78.3474 147.787 72.7966 152.046 69.7173L152.005 71.2918Z" fill="#000E17"/>
<path d="M153.213 70.1466C153.213 70.1466 150.899 71.3411 151.362 74.5022C151.824 77.6633 152.984 79.3789 152.962 80.8632C152.94 82.3474 155.535 88.8142 160.19 87.8214L161.896 87.3687C162.147 88.0033 162.772 90.7335 162.619 91.5226L158.728 93.2565L163.565 108.412C163.565 108.412 163.674 104.803 169.399 101.03C175.124 97.2567 180.011 90.4529 180.011 90.4529L175.754 90.0658C175.754 90.0658 170.656 81.6458 170.136 79.2174C170.136 79.2174 172.218 74.3598 167.968 73.1455C163.718 71.9313 157.583 67.9297 153.213 70.1466Z" fill="white" stroke="#000E17" stroke-width="0.423077" stroke-miterlimit="10"/>
<path d="M155.883 77.7446C155.883 77.7446 155.817 79.2324 155.481 79.9016C155.145 80.5708 153.769 81.1708 154.255 82.0396C154.742 82.9083 157.965 81.7575 157.965 81.7575" fill="white"/>
<path d="M155.883 77.7446C155.883 77.7446 155.817 79.2324 155.481 79.9016C155.145 80.5708 153.769 81.1708 154.255 82.0396C154.742 82.9083 157.965 81.7575 157.965 81.7575" stroke="#000E17" stroke-width="0.423077" stroke-miterlimit="10" stroke-linecap="round"/>
<path d="M152.004 71.2922C152.004 71.2922 153.727 70.164 154.683 71.7273C155.639 73.2905 159.543 74.5732 163.082 73.6353C166.621 72.6975 165.056 75.0456 166.396 75.64C167.263 76.0257 167.562 75.0237 168.95 74.5026C170.338 73.9815 170.685 76.556 170.219 77.192C169.754 77.828 169.36 79.6903 170.572 80.9997C170.898 79.5214 171.142 78.0261 171.302 76.5207C171.302 76.5207 172.85 70.6681 170.69 67.6213C167.457 63.0612 161.997 63.5153 157.963 64.0357C153.93 64.5561 150.744 68.2686 152.004 71.2922Z" fill="#000E17"/>
<path d="M161.84 87.1843C161.84 87.1843 163.125 86.9065 167.128 84.478C167.128 84.478 167.739 84.7283 166.159 86.5596C164.406 88.5924 162.563 90.2967 162.563 90.2967C162.563 90.2967 162.273 88.1962 161.84 87.1843Z" fill="#000E17"/>
<path d="M153.644 78.8557C153.883 78.8115 154.035 78.5534 153.984 78.2793C153.934 78.0051 153.699 77.8186 153.46 77.8628C153.221 77.907 153.068 78.1651 153.119 78.4393C153.17 78.7135 153.405 78.8999 153.644 78.8557Z" fill="#000E17"/>
<path d="M159.418 77.5323C159.441 77.2535 159.262 77.0117 159.019 76.9922C158.776 76.9728 158.561 77.1831 158.538 77.4619C158.516 77.7407 158.695 77.9826 158.938 78.002C159.181 78.0214 159.396 77.8111 159.418 77.5323Z" fill="#000E17"/>
<path d="M159.172 74.6973C159.172 74.6973 159.636 75.7437 161.084 75.64" stroke="#000E17" stroke-width="0.423077" stroke-miterlimit="10" stroke-linecap="round"/>
<path d="M151.971 76.8631C151.971 76.8631 153.111 76.9646 153.722 75.6475" stroke="#000E17" stroke-width="0.423077" stroke-miterlimit="10" stroke-linecap="round"/>
<path d="M156.652 84.1007C157.111 83.7178 158.463 82.7659 160.037 83.2863C160.195 83.3364 160.336 83.4285 160.446 83.5528C160.515 83.6237 160.565 83.7109 160.592 83.8064C160.618 83.9019 160.619 84.0024 160.596 84.0986C160.427 84.7198 156.11 85.9481 156.371 84.5612C156.408 84.3795 156.507 84.2166 156.652 84.1007Z" fill="#000E17"/>
<path d="M177.815 89.8222C177.815 89.8222 175.624 96.1592 166.917 97.707C166.917 97.707 165.273 103.511 164.112 105.107C164.112 105.107 164.644 97.7549 164.112 96.4977C164.112 96.4977 161.484 94.3534 160.033 92.08C160.033 92.08 143.797 96.6909 138.815 101.286C138.815 101.286 143.54 91.2085 143.828 89.3265C143.828 89.3265 143.362 85.2875 139.347 84.3906C139.347 84.3906 116.42 96.9363 115.839 114.156C115.259 131.376 142.007 118.896 142.007 118.896C142.007 118.896 140.121 132.681 140.218 136.551C140.323 140.75 175.141 141.628 175.141 141.628C175.141 141.628 175.205 142.627 175.302 142.982C175.302 142.982 201.26 157.88 213.901 144.724C226.542 131.567 204.029 88.7102 177.815 89.8222Z" fill="white" stroke="#000E17" stroke-width="0.423077" stroke-miterlimit="10"/>
<path d="M185.43 116.246C185.43 116.246 194.489 134.015 197.262 137.305C197.262 137.305 191.197 136.015 184.767 135.242C184.767 135.242 191.683 135.096 191.2 132.097C190.724 129.152 181.886 112.729 185.43 116.246Z" fill="#000E17"/>
<path d="M177.221 136.402C177.221 136.402 173.255 135 171.32 135.048C169.385 135.096 166.918 136.402 166.918 136.402L173.154 141.479L175.141 141.626C175.141 141.626 175.528 138.144 177.221 136.402Z" fill="white" stroke="#000E17" stroke-width="0.423077" stroke-miterlimit="10"/>
<path d="M142.236 118.787C142.236 118.787 142.756 115.518 143.164 112.603C143.213 112.25 142.476 111.863 141.905 112.794C141.023 114.235 140.184 116.341 138.574 117.683C137.075 118.933 134.598 121.8 130.959 122.386C130.959 122.386 135.432 122.302 142.236 118.787Z" fill="#000E17"/>
<path d="M138.637 101.257C138.637 101.257 136.315 106.674 134.058 109.577C134.058 109.577 132.897 112.092 139.153 105.064C145.409 98.0362 147.522 96.4497 147.522 96.4497C147.522 96.4497 143.587 97.5455 138.637 101.257Z" fill="#000E17"/>
<path d="M177.223 136.402C177.223 136.402 178.287 135.289 179.496 134.758C179.496 134.758 190.701 135.693 197.265 137.305" fill="white"/>
<path d="M177.223 136.402C177.223 136.402 178.287 135.289 179.496 134.758C179.496 134.758 190.701 135.693 197.265 137.305" stroke="#000E17" stroke-width="0.423077" stroke-miterlimit="10"/>
<path d="M222.445 166.537C226.946 166.537 230.594 162.889 230.594 158.389C230.594 153.888 226.946 150.24 222.445 150.24C217.945 150.24 214.297 153.888 214.297 158.389C214.297 162.889 217.945 166.537 222.445 166.537Z" fill="#2892FF"/>
<path d="M208.18 171.761C210.242 171.761 211.914 170.089 211.914 168.026C211.914 165.964 210.242 164.292 208.18 164.292C206.117 164.292 204.445 165.964 204.445 168.026C204.445 170.089 206.117 171.761 208.18 171.761Z" stroke="#2892FF" stroke-width="0.423077" stroke-miterlimit="10"/>
<path d="M137.062 33.2822C137.188 34.5387 209.706 2.18601 241.891 60.0488" stroke="#000E17" stroke-width="0.423077" stroke-miterlimit="10" stroke-linecap="round"/>
<path d="M243.997 63.8037C243.997 63.8037 272.588 124.526 237.246 141.627" stroke="#000E17" stroke-width="0.423077" stroke-miterlimit="10" stroke-linecap="round"/>
<path d="M169.175 101.092C169.763 101.092 170.239 100.616 170.239 100.028C170.239 99.4403 169.763 98.9639 169.175 98.9639C168.588 98.9639 168.111 99.4403 168.111 100.028C168.111 100.616 168.588 101.092 169.175 101.092Z" fill="#2892FF"/>
<path d="M168.111 104.683C168.699 104.683 169.175 104.206 169.175 103.619C169.175 103.031 168.699 102.555 168.111 102.555C167.523 102.555 167.047 103.031 167.047 103.619C167.047 104.206 167.523 104.683 168.111 104.683Z" fill="#2892FF"/>
<path d="M166.345 107.806C166.933 107.806 167.409 107.329 167.409 106.742C167.409 106.154 166.933 105.678 166.345 105.678C165.758 105.678 165.281 106.154 165.281 106.742C165.281 107.329 165.758 107.806 166.345 107.806Z" fill="#2892FF"/>
<path d="M85.7539 124.213C85.7539 124.213 86.5429 128.345 85.9654 131.248C85.9654 131.248 104.395 137.37 110.199 151.493L110.559 148.47C111.31 142.142 109.474 135.756 105.386 130.868C101.573 126.313 95.4417 122.592 85.7539 124.213Z" fill="white" stroke="#000E17" stroke-width="0.423077" stroke-miterlimit="10"/>
<path d="M85.7539 124.213L115.066 112.121C115.066 112.121 132.963 116.087 138.574 132.339L110.196 151.493C110.196 151.493 116.517 128.18 85.7539 124.213Z" fill="white" stroke="#000E17" stroke-width="0.423077" stroke-miterlimit="10"/>
<path d="M110.389 150.529C110.389 150.529 113.162 137.886 110.195 132.468C110.195 132.468 111.969 134.129 112.792 136.16C113.614 138.192 113.708 137.87 113.708 137.87C113.708 137.87 113.757 135.387 114.385 134.697C114.385 134.697 115.434 135.567 116.062 135.084C116.69 134.6 117.497 133.568 117.497 133.568C117.497 133.568 117.739 136.084 118.642 135.293C119.545 134.503 119.319 133.858 119.319 133.858C119.319 133.858 120.383 137.293 121.011 136.051C121.64 134.809 121.673 133.936 121.673 133.936C121.673 133.936 122.43 135.242 122.608 134.629C122.785 134.016 123.994 135.354 124.832 134.145C125.671 132.936 125.784 131.872 125.784 131.872C125.784 131.872 125.896 130.641 127.758 131.544C129.619 132.447 129.23 132.36 129.585 131.262C129.94 130.163 130.133 130.219 130.133 130.219C130.133 130.219 130.52 131.326 130.843 130.681C131.166 130.036 131.982 131.401 134.003 129.51C134.003 129.51 134.701 128.821 135.013 128.821C135.013 128.821 134.454 129.574 135.013 129.692C135.572 129.811 136.851 129.551 137.313 128.757C137.775 127.963 137.838 125.387 137.838 125.387C137.838 125.387 139.376 129.908 138.549 132.272L110.389 150.529Z" fill="white" stroke="#000E17" stroke-width="0.423077" stroke-miterlimit="10"/>
<path d="M173.153 141.479C173.153 141.479 175.638 148.108 177.22 151.009L142.958 167.552L141.539 155.556L173.153 141.479Z" fill="white" stroke="#000E17" stroke-width="0.423077" stroke-miterlimit="10"/>
<path d="M110.195 151.493C110.505 148.896 111.673 146.477 113.513 144.619C115.354 142.761 117.762 141.571 120.356 141.237C123.655 140.814 126.997 140.712 128.769 141.626C133.026 143.818 141.539 155.555 141.539 155.555L142.958 167.551C142.958 167.551 120.901 147.042 110.195 151.492V151.493Z" fill="white" stroke="#000E17" stroke-width="0.423077" stroke-miterlimit="10"/>
<path d="M110.195 151.493C110.195 151.493 111.218 145.77 115.827 143.077C120.757 140.197 129.657 140.785 141.539 155.558L173.153 141.481C173.153 141.481 159.977 123.945 138.572 132.341L118.595 141.002C115.859 142.188 113.875 144.099 112.087 146.486C112.087 146.486 110.893 148.451 110.606 149.453L110.195 151.493Z" fill="white" stroke="#000E17" stroke-width="0.423077" stroke-miterlimit="10"/>
<path d="M157.173 56.8468L157.163 56.4738C157.115 55.7123 157.415 54.8668 158.171 54.0595C158.853 53.3191 159.238 52.7789 159.27 52.1359C159.307 51.4068 158.873 50.8977 157.973 50.8391C157.458 50.8137 156.878 50.9562 156.507 51.2107L156.209 50.2941C156.712 49.9746 157.524 49.7857 158.282 49.823C159.926 49.9048 160.619 50.9569 160.565 52.0435C160.517 53.0152 159.938 53.7034 159.212 54.4698C158.546 55.182 158.285 55.8138 158.295 56.545L158.292 56.9032L157.173 56.8468ZM157.544 59.7745C157.057 59.7505 156.734 59.3472 156.758 58.8473C156.785 58.3184 157.161 57.9645 157.661 57.9891C158.161 58.0138 158.486 58.403 158.46 58.9312C158.435 59.4318 158.087 59.8013 157.558 59.7773L157.544 59.7745Z" fill="#000E17"/>
<path d="M145.123 62.8383L144.896 62.5408C144.412 61.9513 144.161 61.0903 144.303 59.9924C144.423 58.9933 144.42 58.3305 144.07 57.7903C143.673 57.1769 143.024 57.0147 142.26 57.4963C141.827 57.7783 141.44 58.231 141.287 58.6541L140.512 58.0844C140.734 57.5308 141.282 56.9033 141.922 56.4908C143.303 55.596 144.481 56.0444 145.072 56.9576C145.601 57.7741 145.534 58.6703 145.393 59.7167C145.269 60.6842 145.426 61.3491 145.86 61.9386L146.066 62.2312L145.123 62.8383ZM147.135 64.9967C146.726 65.2612 146.228 65.1237 145.955 64.7027C145.668 64.2592 145.766 63.7515 146.187 63.4793C146.608 63.2071 147.098 63.3326 147.385 63.7769C147.657 64.1999 147.591 64.7006 147.147 64.989L147.135 64.9967Z" fill="#000E17"/>
</svg>
