<svg width="330" height="220" viewBox="0 0 330 220" fill="none" xmlns="http://www.w3.org/2000/svg">
<path d="M330 0H0V220H330V0Z" fill="white"/>
<path d="M149.208 186.58C149.208 186.58 57.3339 202.222 61.8623 108.773C66.3906 15.3239 155.394 30.0286 176.056 44.3025C201.172 61.6529 208.653 58.1026 230.269 76.1362C264.025 104.301 253.45 168.479 149.208 186.58Z" fill="#2892FF"/>
<path d="M272.595 164.921C272.595 167.68 260.743 170.11 242.784 171.522C233.216 172.275 221.916 172.739 209.751 172.811C208.644 172.819 207.531 172.822 206.412 172.822C204.507 172.822 202.621 172.812 200.756 172.793C192.135 172.706 183.986 172.421 176.625 171.978C155.036 170.677 140.229 168.005 140.229 164.921C140.229 161.748 155.916 159.007 178.543 157.752C182.28 157.544 186.208 157.378 190.284 157.259C192.349 157.198 194.45 157.148 196.589 157.109C199.794 157.051 203.068 157.022 206.411 157.022C218.569 157.022 229.962 157.413 239.752 158.097C259.397 159.464 272.595 162.008 272.595 164.921Z" fill="#000E17"/>
<path d="M243.093 171.205L242.784 171.299C233.217 172.052 221.916 172.516 209.751 172.588C205.862 166.516 201.24 162.56 201.24 162.56L200.757 172.573C192.136 172.486 183.987 172.201 176.626 171.758L175.831 160.867C175.831 160.867 176.825 159.598 178.544 157.532C187.428 146.855 215.681 114.962 225.87 128.128L225.918 128.194C226.7 129.204 227.45 130.263 228.171 131.359L228.176 131.366C228.846 132.386 229.492 133.435 230.114 134.514C234.48 142.071 237.643 150.818 239.753 157.877C242.043 165.531 243.093 171.205 243.093 171.205Z" fill="#2892FF" stroke="#000E17" stroke-width="0.423077" stroke-miterlimit="10"/>
<path d="M225.8 132.488C225.8 132.488 239.697 157.069 237.913 171.375L242.842 171.093C242.842 171.093 237.296 144.209 227.45 130.795L225.8 132.488Z" fill="white"/>
<path d="M220 145.146C220 145.146 226.122 149.906 235.671 146.328" stroke="#000E17" stroke-width="0.423077" stroke-miterlimit="10" stroke-linecap="round"/>
<path d="M222.17 136.57C222.17 136.57 216.195 155.07 176.125 164.921L175.829 157.02L222.17 136.57Z" fill="#000E17"/>
<path d="M104.956 157.938C104.956 157.938 104.519 158.988 100.316 160.413C95.4955 162.048 92.3654 162.059 92.5685 162.552C92.7715 163.045 93.6501 163.414 93.6501 163.414C93.6501 163.414 92.2568 163.873 91.7421 163.907C91.2273 163.942 92.0516 165.614 93.5853 165.172C93.5853 165.172 92.0206 165.806 91.7336 165.846C91.4466 165.887 90.7951 166.454 91.4783 166.918C92.1616 167.382 93.0924 167.087 93.0924 167.087C93.0924 167.087 91.9642 167.721 92.6298 168.047C93.2955 168.373 94.4533 168.501 102.17 165.865C102.17 165.865 104.152 164.878 104.223 165.423C104.294 165.969 103.377 167.16 102.102 167.984C100.827 168.809 101.646 169.531 103.661 169.06C105.675 168.589 109.231 165.633 109.951 162.667C110.671 159.701 104.956 157.938 104.956 157.938Z" fill="white" stroke="#000E17" stroke-width="0.423077" stroke-miterlimit="10"/>
<path d="M105.65 160.219C105.65 160.219 106.473 162.514 107.43 163.358C108.388 164.201 107.604 166.49 107.604 166.49C107.604 166.49 109.876 164.058 110.001 161.913C110.126 159.769 105.65 160.219 105.65 160.219Z" fill="#000E17"/>
<path d="M93.0928 167.085C93.0928 167.085 97.7967 165.224 99.1999 164.313" stroke="#000E17" stroke-width="0.423077" stroke-miterlimit="10" stroke-linecap="round"/>
<path d="M93.5859 165.169C93.5859 165.169 96.3014 164.105 98.4457 162.907" stroke="#000E17" stroke-width="0.423077" stroke-miterlimit="10" stroke-linecap="round"/>
<path d="M93.6504 163.414C93.6504 163.414 96.2594 162.85 97.6083 162.065" stroke="#000E17" stroke-width="0.423077" stroke-miterlimit="10" stroke-linecap="round"/>
<path d="M106.105 154.691L103.878 158.027C103.878 158.027 108.589 164.677 111.536 163.668L115.372 159.672L106.105 154.691Z" fill="#2892FF" stroke="#000E17" stroke-width="0.423077" stroke-miterlimit="10"/>
<path d="M125.543 76.9806C125.543 76.9806 127.342 82.6555 129.664 84.9344C129.664 84.9344 128.932 87.3058 130.452 87.6358C131.351 87.8311 132.733 86.9709 132.733 86.9709C132.733 86.9709 135.821 90.3012 139.87 88.3621C141.417 87.6217 142.042 86.9948 142.25 86.7403C142.26 86.7288 142.272 86.7201 142.286 86.7149C142.3 86.7097 142.315 86.7082 142.33 86.7106C142.344 86.7131 142.358 86.7193 142.37 86.7287C142.381 86.7381 142.39 86.7504 142.396 86.7642L145.616 94.8916C145.616 94.8916 148.068 101.124 150.077 99.3987C152.561 97.2664 157.759 86.0979 159.306 83.2026L145.949 74.61C145.949 74.61 148.78 70.8023 146.712 67.9958C144.643 65.1894 141.642 65.7733 141.061 67.2407C140.479 68.708 139.038 63.6022 134.326 65.8903C129.614 68.1785 125.543 76.9806 125.543 76.9806Z" fill="white" stroke="#000E17" stroke-width="0.423077" stroke-miterlimit="10"/>
<path d="M135.173 84.4102C135.173 84.4102 134.064 86.1271 132.736 86.9712L135.173 84.4102Z" fill="white"/>
<path d="M135.173 84.4102C135.173 84.4102 134.064 86.1271 132.736 86.9712" stroke="#000E17" stroke-width="0.423077" stroke-miterlimit="10"/>
<path d="M134.092 68.7212C134.092 68.7212 130.9 78.8045 120.383 77.3329C114.869 76.5572 118.87 63.6605 126.225 60.3626C128.008 59.5637 130.064 59.8365 131.667 60.9535C132.543 61.5641 133.923 61.6889 135.716 59.1829C137.637 56.4935 140.059 58.6935 141.807 61.9653C143.543 65.2124 143.719 66.0466 143.719 66.0466C143.719 66.0466 140.109 65.694 141.262 70.8119C142.099 74.5272 140.934 75.3769 139.866 74.6788C138.798 73.9807 135.231 66.2723 134.092 68.7212Z" fill="#000E17"/>
<path d="M129.666 84.9346C130.054 83.786 130.004 82.5347 129.525 81.4209L129.666 84.9346Z" fill="white"/>
<path d="M129.666 84.9346C130.054 83.786 130.004 82.5347 129.525 81.4209" stroke="#000E17" stroke-width="0.423077" stroke-miterlimit="10"/>
<path d="M143.891 70.7537C143.891 70.7537 144.314 69.2482 144.118 68.3633" stroke="#000E17" stroke-width="0.423077" stroke-miterlimit="10" stroke-linecap="round"/>
<path d="M142.835 68.0452C142.835 67.9549 144.584 67.7913 145.421 69.6268" stroke="#000E17" stroke-width="0.423077" stroke-miterlimit="10" stroke-linecap="round"/>
<path d="M142.104 86.5542C142.945 85.7987 143.722 84.973 144.424 84.0862C144.477 84.021 144.549 83.9746 144.63 83.9537C144.711 83.9328 144.797 83.9386 144.874 83.9703C144.952 84.002 145.017 84.0578 145.06 84.1295C145.104 84.2012 145.123 84.2849 145.114 84.3683C144.922 86.2065 144.621 89.4917 144.577 92.2657L142.104 86.5542Z" fill="#000E17"/>
<path d="M129.004 84.8054C130.095 83.9163 130.217 82.2604 129.277 81.1069C128.337 79.9535 126.69 79.7392 125.599 80.6283C124.508 81.5175 124.386 83.1733 125.326 84.3268C126.266 85.4803 127.913 85.6945 129.004 84.8054Z" stroke="#000E17" stroke-width="0.423077" stroke-miterlimit="10"/>
<path d="M135.697 81.0085C136.788 80.1194 136.91 78.4635 135.97 77.3101C135.03 76.1566 133.384 75.9423 132.293 76.8315C131.202 77.7206 131.079 79.3765 132.02 80.5299C132.96 81.6834 134.606 81.8977 135.697 81.0085Z" stroke="#000E17" stroke-width="0.423077" stroke-miterlimit="10"/>
<path d="M134.435 80.4317C134.74 80.3529 134.899 79.9452 134.79 79.521C134.681 79.0968 134.344 78.8167 134.039 78.8955C133.733 78.9742 133.574 79.382 133.683 79.8062C133.793 80.2304 134.129 80.5104 134.435 80.4317Z" fill="black"/>
<path d="M125.042 79.1419C125.042 79.1419 126.315 79.1673 126.894 77.6611" stroke="#000E17" stroke-width="0.423077" stroke-miterlimit="10" stroke-linecap="round"/>
<path d="M139.711 84.2842C139.711 84.2842 137.055 84.4301 135.845 87.8874" stroke="#000E17" stroke-width="0.423077" stroke-miterlimit="10" stroke-linecap="round"/>
<path d="M130.824 74.6783C130.824 74.6783 131.82 75.4744 133.198 74.6289" stroke="#000E17" stroke-width="0.423077" stroke-miterlimit="10" stroke-linecap="round"/>
<path d="M158.486 81.1599C158.486 81.1599 180.449 79.256 202.991 98.1739C225.534 117.092 228.361 129.179 228.361 129.179C228.361 129.179 207.096 160.194 171.099 161.167L159.223 141.271C159.223 141.271 150.94 139.136 143.852 132.488C143.852 132.488 126.313 153.88 114.984 161.695C114.984 161.695 110.618 161.643 105.126 154.577C105.126 154.577 124.164 127.071 130.339 113.601C136.513 100.131 139.13 93.9742 141.55 93.4496C143.97 92.925 149.457 95.706 149.457 95.706L158.486 81.1599Z" fill="#FEF7EF" stroke="#000E17" stroke-width="0.423077" stroke-miterlimit="10"/>
<path d="M141.673 118.725C141.673 118.725 139.088 116.157 138.452 113.68C137.817 111.203 135.178 104.524 130.455 107.564C130.455 107.564 130.06 107.628 130.442 108.166C130.823 108.704 132.168 109.197 131.9 109.613C131.632 110.028 130.327 111.168 129.448 110.268C128.57 109.369 128.532 108.797 127.997 109.051C127.463 109.304 126.059 110.101 126.366 111.122C126.672 112.143 128.604 116.157 129.845 117.182C131.086 118.207 136.933 121.907 137.552 122.932C138.172 123.957 141.673 118.725 141.673 118.725Z" fill="white" stroke="#000E17" stroke-width="0.423077" stroke-miterlimit="10"/>
<path d="M141.715 123.01L144.488 126.488L141.011 123.448L138.432 125.763L135.837 122.637C135.837 122.637 141.111 118.66 141.584 117.111L145.673 119.234C144.638 120.837 141.715 123.01 141.715 123.01Z" fill="#2892FF" stroke="#000E17" stroke-width="0.423077" stroke-miterlimit="10"/>
<path d="M145.674 119.237C145.805 119.044 145.909 118.835 145.983 118.614C145.983 118.614 156.727 122.19 164.274 123.019C164.274 123.019 152.814 102.641 159.549 81.2236" stroke="#000E17" stroke-width="0.423077" stroke-miterlimit="10" stroke-linecap="round"/>
<path d="M138.432 125.763L138.348 125.838C140.288 128.767 143.848 132.488 143.848 132.488" stroke="#000E17" stroke-width="0.423077" stroke-miterlimit="10" stroke-linecap="round"/>
<path d="M164.273 123.017C164.273 123.017 168.862 122.918 173.546 126.457C173.546 126.457 175.81 127.891 171.865 122.595C167.919 117.299 163.842 120.993 160.259 113.203C160.259 113.203 162.089 118.753 164.273 123.017Z" fill="#000E17"/>
<path d="M159.224 141.271C159.224 141.271 174.645 148.075 180.417 135.072C186.188 122.069 186.4 105.434 186.4 105.434C186.4 105.434 186.656 103.429 186.894 109.21C187.131 114.991 186.748 124.193 187.361 126.794C188.776 132.802 182.025 148.943 159.224 141.271Z" fill="#000E17"/>
<path d="M141.425 109.555L147.752 119.174" stroke="#000E17" stroke-width="0.423077" stroke-miterlimit="10" stroke-linecap="round"/>
<path d="M186.35 158.888L174.081 141.816" stroke="#000E17" stroke-width="0.423077" stroke-miterlimit="10" stroke-linecap="round"/>
<path d="M149.455 95.7031C149.455 95.7031 155.7 111.606 163.013 122.858" stroke="#000E17" stroke-width="0.423077" stroke-miterlimit="10" stroke-linecap="round"/>
<path d="M194.982 128.98C194.982 128.98 206.178 132.843 212.632 127.428C212.632 127.428 212.904 126.452 211.566 126.63C210.227 126.809 208.322 128.969 204.361 128.095C200.401 127.22 198.056 128.267 194.982 128.98Z" fill="#000E17"/>
<path d="M131.33 108.553L128.111 104.712C128.037 104.623 127.931 104.565 127.816 104.551C127.701 104.536 127.584 104.565 127.49 104.633L126.232 105.531C126.181 105.568 126.138 105.614 126.105 105.668C126.073 105.722 126.052 105.782 126.043 105.844C126.035 105.906 126.039 105.97 126.056 106.03C126.073 106.091 126.102 106.147 126.141 106.196L129.761 110.676C129.761 110.676 132.431 110.438 131.33 108.553Z" fill="#000E17"/>
<path d="M126.233 102.861L128.126 105.479L126.852 106.367L124.978 103.93L126.233 102.861Z" fill="#000E17"/>
<path d="M126.052 102.995C127.599 101.733 127.183 98.6639 125.124 96.1392C123.065 93.6144 120.142 92.5903 118.595 93.8517C117.049 95.1132 117.464 98.1825 119.523 100.707C121.582 103.232 124.506 104.256 126.052 102.995Z" stroke="#000E17" stroke-width="0.423077" stroke-miterlimit="10"/>
<path d="M125.691 102.554C126.994 101.491 126.542 98.7808 124.682 96.4999C122.822 94.219 120.257 93.2313 118.955 94.2938C117.652 95.3564 118.104 98.0668 119.964 100.348C121.824 102.629 124.388 103.616 125.691 102.554Z" stroke="#000E17" stroke-width="0.423077" stroke-miterlimit="10"/>
<path d="M118.763 94.4639C118.763 94.4639 124.133 94.6352 125.488 100.748C125.584 101.17 125.593 101.607 125.513 102.032C125.463 102.314 125.358 102.584 125.204 102.825" stroke="#000E17" stroke-width="0.423077" stroke-miterlimit="10"/>
<path d="M119.181 93.4502C119.181 93.4502 116.695 94.0608 116.976 97.1126C117.258 100.164 119.853 102.929 122.124 103.774C122.124 103.774 124.976 104.715 126.413 102.61" stroke="#000E17" stroke-width="0.423077" stroke-miterlimit="10"/>
<path d="M135.673 77.0091L141.118 72.1035" stroke="#000E17" stroke-width="0.423077" stroke-miterlimit="10" stroke-linecap="round"/>
<path d="M156.166 80.3623L149.455 95.7031C149.455 95.7031 153.521 92.4031 157.556 94.1581L159.687 80.2988L156.166 80.3623Z" fill="#000E17"/>
<path d="M142.665 90.8477L149.455 95.7025C149.455 95.7025 145.827 96.6191 145.065 100.268L139.636 93.6653L142.665 90.8477Z" fill="#000E17"/>
<path d="M159.224 141.271C159.224 141.271 176.564 149.935 182.135 130.66C187.705 111.385 186.403 105.433 186.403 105.433" stroke="#000E17" stroke-width="0.423077" stroke-miterlimit="10" stroke-linecap="round"/>
<path d="M158.127 52.5319L158.236 52.1497C158.432 51.3621 159.007 50.5985 160.034 50.0245C160.963 49.4928 161.527 49.0683 161.766 48.4267C162.037 47.6983 161.76 47.0432 160.867 46.6949C160.353 46.5038 159.718 46.4622 159.26 46.6011L159.253 45.5744C159.865 45.4122 160.75 45.4813 161.509 45.7627C163.15 46.3733 163.515 47.663 163.112 48.7475C162.751 49.7177 161.943 50.2283 160.961 50.7747C160.057 51.2831 159.589 51.8402 159.361 52.5841L159.243 52.9458L158.127 52.5319ZM157.563 55.6204C157.077 55.4392 156.878 54.9272 157.064 54.4273C157.261 53.8999 157.755 53.6608 158.255 53.847C158.755 54.0331 158.96 54.5317 158.763 55.0591C158.576 55.559 158.105 55.822 157.577 55.6232L157.563 55.6204Z" fill="#000E17"/>
<path d="M134.763 48.7411V48.3441C134.741 47.5325 135.092 46.6455 135.928 45.8155C136.68 45.0547 137.11 44.4955 137.169 43.813C137.235 43.0373 136.795 42.4817 135.84 42.3844C135.294 42.3378 134.671 42.4676 134.267 42.7235L133.985 41.7364C134.533 41.4162 135.403 41.2463 136.207 41.3133C137.952 41.4628 138.648 42.6079 138.549 43.7608C138.461 44.7924 137.819 45.5018 137.018 46.2894C136.283 47.0206 135.982 47.6827 135.96 48.4605L135.943 48.8405L134.763 48.7411ZM135.045 51.8684C134.528 51.8239 134.199 51.3832 134.246 50.8516C134.293 50.291 134.707 49.9285 135.238 49.9744C135.769 50.0202 136.099 50.4461 136.051 51.0067C136.006 51.5376 135.621 51.9177 135.063 51.8691L135.045 51.8684Z" fill="#000E17"/>
<path d="M110.595 60.2065L110.29 59.952C109.648 59.4584 109.183 58.6221 109.07 57.4502C108.957 56.3854 108.796 55.6986 108.305 55.2213C107.748 54.6797 107.035 54.6684 106.358 55.3461C105.976 55.7388 105.682 56.3036 105.624 56.7782L104.682 56.3713C104.78 55.7452 105.199 54.9611 105.762 54.3857C106.982 53.1292 108.31 53.3146 109.139 54.1213C109.882 54.8426 110.025 55.7882 110.127 56.9065C110.227 57.9388 110.55 58.5911 111.138 59.0995L111.42 59.354L110.595 60.2065ZM113.194 61.9693C112.833 62.341 112.284 62.317 111.901 61.9454C111.497 61.5526 111.478 61.004 111.851 60.6211C112.223 60.2383 112.76 60.2531 113.164 60.6458C113.547 61.0167 113.597 61.5547 113.205 61.9588L113.194 61.9693Z" fill="#000E17"/>
<path d="M112.26 173.008H127.138" stroke="#000E17" stroke-width="0.423077" stroke-miterlimit="10" stroke-linecap="round"/>
<path d="M57.4053 166.49H61.3737" stroke="#000E17" stroke-width="0.423077" stroke-miterlimit="10" stroke-linecap="round"/>
<path d="M69.876 172.625H82.9688" stroke="#000E17" stroke-width="0.423077" stroke-miterlimit="10" stroke-linecap="round"/>
<path d="M79.3262 167.084H83.2946" stroke="#000E17" stroke-width="0.423077" stroke-miterlimit="10" stroke-linecap="round"/>
<path d="M112.26 167.361H116.228" stroke="#000E17" stroke-width="0.423077" stroke-miterlimit="10" stroke-linecap="round"/>
<path d="M61.3731 138.647C61.3731 138.647 40.9258 43.688 116.013 32.4355" stroke="#000E17" stroke-width="0.423077" stroke-miterlimit="10" stroke-linecap="round"/>
</svg>
