<svg width="330" height="220" viewBox="0 0 330 220" fill="none" xmlns="http://www.w3.org/2000/svg">
<path d="M330 0H0V220H330V0Z" fill="white"/>
<path d="M117.625 47.5531C109.309 52.0659 28.4523 100.409 97.2468 167.936C166.041 235.463 188.199 155.095 229.538 141.879C270.877 128.663 247.307 47.9084 204.733 34.2691C166.784 22.1127 135.252 37.9859 117.625 47.5531Z" fill="#2892FF"/>
<path d="M85.9477 132.616C90.9759 134.922 104.174 141.738 108.018 151.288C108.071 151.421 108.166 151.533 108.288 151.608L111.013 153.26C111.094 153.309 111.185 153.34 111.28 153.351C111.375 153.361 111.47 153.351 111.561 153.321C113.127 152.798 121.683 151.221 141.653 169.081C142.04 169.428 142.523 169.65 143.037 169.719C143.552 169.788 144.076 169.7 144.54 169.468L178.364 152.519C178.466 152.468 178.553 152.392 178.617 152.297C178.68 152.202 178.718 152.093 178.727 151.979C178.735 151.865 178.714 151.751 178.665 151.648C178.616 151.545 178.541 151.456 178.447 151.391L163.661 141.016C163.575 140.955 163.476 140.916 163.372 140.902L86.9948 130.389C86.864 130.371 86.7309 130.393 86.6126 130.451L85.9166 130.797C85.7463 130.882 85.6035 131.013 85.5048 131.176C85.406 131.339 85.3553 131.526 85.3585 131.716C85.3618 131.906 85.4188 132.092 85.5231 132.251C85.6273 132.41 85.7745 132.537 85.9477 132.616Z" fill="#2892FF"/>
<path d="M190.136 138.336C228.87 138.336 260.271 134.222 260.271 129.146C260.271 124.071 228.87 119.957 190.136 119.957C151.401 119.957 120 124.071 120 129.146C120 134.222 151.401 138.336 190.136 138.336Z" fill="#000E17"/>
<path d="M139.632 84.5182C139.632 84.5182 143.792 80.5519 145.097 79.8425C146.402 79.1331 149.981 76.8972 150.501 76.2738C151.02 75.6505 151.665 77.2843 150.332 78.3808C149.394 79.1522 147.573 80.8861 146.625 81.386L146.05 80.9503C146.05 80.9503 146.826 81.1963 148.01 83.3893C149.195 85.5822 142.765 88.5917 142.765 88.5917L139.632 84.5182Z" fill="white" stroke="#000E17" stroke-width="0.423077" stroke-miterlimit="10"/>
<path d="M152.004 71.2918C152.004 71.2918 151.195 73.9114 152.357 78.3474C152.357 78.3474 147.786 72.7966 152.045 69.7173L152.004 71.2918Z" fill="#000E17"/>
<path d="M153.212 70.1466C153.212 70.1466 150.898 71.3411 151.361 74.5022C151.824 77.6633 152.983 79.3789 152.961 80.8632C152.939 82.3474 155.534 88.8142 160.189 87.8214L161.895 87.3687C162.146 88.0033 162.771 90.7335 162.618 91.5226L158.727 93.2565L163.564 108.412C163.564 108.412 163.673 104.803 169.398 101.03C175.123 97.2567 180.01 90.4529 180.01 90.4529L175.753 90.0658C175.753 90.0658 170.655 81.6458 170.135 79.2174C170.135 79.2174 172.217 74.3598 167.967 73.1455C163.717 71.9313 157.582 67.9297 153.212 70.1466Z" fill="white" stroke="#000E17" stroke-width="0.423077" stroke-miterlimit="10"/>
<path d="M155.883 77.7446C155.883 77.7446 155.817 79.2324 155.481 79.9016C155.145 80.5708 153.769 81.1708 154.255 82.0396C154.742 82.9083 157.965 81.7575 157.965 81.7575" fill="white"/>
<path d="M155.883 77.7446C155.883 77.7446 155.817 79.2324 155.481 79.9016C155.145 80.5708 153.769 81.1708 154.255 82.0396C154.742 82.9083 157.965 81.7575 157.965 81.7575" stroke="#000E17" stroke-width="0.423077" stroke-miterlimit="10" stroke-linecap="round"/>
<path d="M152.005 71.2922C152.005 71.2922 153.728 70.164 154.684 71.7273C155.64 73.2905 159.544 74.5732 163.083 73.6353C166.622 72.6975 165.057 75.0456 166.397 75.64C167.264 76.0257 167.563 75.0237 168.951 74.5026C170.339 73.9815 170.686 76.556 170.22 77.192C169.755 77.828 169.361 79.6903 170.573 80.9997C170.899 79.5214 171.143 78.0261 171.303 76.5207C171.303 76.5207 172.851 70.6681 170.691 67.6213C167.458 63.0612 161.998 63.5153 157.964 64.0357C153.931 64.5561 150.745 68.2686 152.005 71.2922Z" fill="#000E17"/>
<path d="M161.84 87.1843C161.84 87.1843 163.125 86.9065 167.128 84.478C167.128 84.478 167.739 84.7283 166.159 86.5596C164.406 88.5924 162.563 90.2967 162.563 90.2967C162.563 90.2967 162.273 88.1962 161.84 87.1843Z" fill="#000E17"/>
<path d="M153.644 78.8557C153.883 78.8115 154.035 78.5534 153.984 78.2793C153.934 78.0051 153.699 77.8186 153.46 77.8628C153.221 77.907 153.068 78.1651 153.119 78.4393C153.17 78.7135 153.405 78.8999 153.644 78.8557Z" fill="#000E17"/>
<path d="M159.418 77.5323C159.441 77.2535 159.262 77.0117 159.019 76.9922C158.776 76.9728 158.561 77.1831 158.538 77.4619C158.516 77.7407 158.695 77.9826 158.938 78.002C159.181 78.0214 159.396 77.8111 159.418 77.5323Z" fill="#000E17"/>
<path d="M159.173 74.6973C159.173 74.6973 159.637 75.7437 161.085 75.64" stroke="#000E17" stroke-width="0.423077" stroke-miterlimit="10" stroke-linecap="round"/>
<path d="M151.971 76.8631C151.971 76.8631 153.111 76.9646 153.722 75.6475" stroke="#000E17" stroke-width="0.423077" stroke-miterlimit="10" stroke-linecap="round"/>
<path d="M156.653 84.1007C157.112 83.7178 158.464 82.7659 160.038 83.2863C160.196 83.3364 160.337 83.4285 160.447 83.5528C160.516 83.6237 160.566 83.7109 160.593 83.8064C160.619 83.9019 160.62 84.0024 160.597 84.0986C160.428 84.7198 156.111 85.9481 156.372 84.5612C156.409 84.3795 156.508 84.2166 156.653 84.1007Z" fill="#000E17"/>
<path d="M177.815 89.8222C177.815 89.8222 175.624 96.1592 166.917 97.707C166.917 97.707 165.273 103.511 164.112 105.107C164.112 105.107 164.644 97.7549 164.112 96.4977C164.112 96.4977 161.484 94.3534 160.033 92.08C160.033 92.08 143.797 96.6909 138.815 101.286C138.815 101.286 143.54 91.2085 143.828 89.3265C143.828 89.3265 143.362 85.2875 139.347 84.3906C139.347 84.3906 116.42 96.9363 115.839 114.156C115.259 131.376 142.007 118.896 142.007 118.896C142.007 118.896 140.121 132.681 140.218 136.551C140.323 140.75 175.141 141.628 175.141 141.628C175.141 141.628 175.205 142.627 175.302 142.982C175.302 142.982 201.26 157.88 213.901 144.724C226.542 131.567 204.029 88.7102 177.815 89.8222Z" fill="white" stroke="#000E17" stroke-width="0.423077" stroke-miterlimit="10"/>
<path d="M185.43 116.246C185.43 116.246 194.489 134.015 197.262 137.305C197.262 137.305 191.197 136.015 184.767 135.242C184.767 135.242 191.683 135.096 191.2 132.097C190.724 129.152 181.886 112.729 185.43 116.246Z" fill="#000E17"/>
<path d="M177.221 136.402C177.221 136.402 173.255 135 171.32 135.048C169.385 135.096 166.918 136.402 166.918 136.402L173.154 141.479L175.141 141.626C175.141 141.626 175.528 138.144 177.221 136.402Z" fill="white" stroke="#000E17" stroke-width="0.423077" stroke-miterlimit="10"/>
<path d="M142.236 118.787C142.236 118.787 142.756 115.518 143.164 112.603C143.213 112.25 142.476 111.863 141.905 112.794C141.023 114.235 140.184 116.341 138.574 117.683C137.075 118.933 134.598 121.8 130.959 122.386C130.959 122.386 135.432 122.302 142.236 118.787Z" fill="#000E17"/>
<path d="M138.638 101.257C138.638 101.257 136.316 106.674 134.059 109.577C134.059 109.577 132.898 112.092 139.154 105.064C145.41 98.0362 147.523 96.4497 147.523 96.4497C147.523 96.4497 143.588 97.5455 138.638 101.257Z" fill="#000E17"/>
<path d="M177.222 136.402C177.222 136.402 178.286 135.289 179.495 134.758C179.495 134.758 190.7 135.693 197.264 137.305" fill="white"/>
<path d="M177.222 136.402C177.222 136.402 178.286 135.289 179.495 134.758C179.495 134.758 190.7 135.693 197.264 137.305" stroke="#000E17" stroke-width="0.423077" stroke-miterlimit="10"/>
<path d="M222.444 166.537C226.945 166.537 230.593 162.889 230.593 158.389C230.593 153.888 226.945 150.24 222.444 150.24C217.944 150.24 214.296 153.888 214.296 158.389C214.296 162.889 217.944 166.537 222.444 166.537Z" fill="#2892FF"/>
<path d="M208.18 171.761C210.242 171.761 211.914 170.089 211.914 168.026C211.914 165.964 210.242 164.292 208.18 164.292C206.117 164.292 204.445 165.964 204.445 168.026C204.445 170.089 206.117 171.761 208.18 171.761Z" stroke="#2892FF" stroke-width="0.423077" stroke-miterlimit="10"/>
<path d="M137.062 33.2822C137.188 34.5387 209.706 2.18601 241.891 60.0488" stroke="#000E17" stroke-width="0.423077" stroke-miterlimit="10" stroke-linecap="round"/>
<path d="M243.998 63.8037C243.998 63.8037 272.589 124.526 237.247 141.627" stroke="#000E17" stroke-width="0.423077" stroke-miterlimit="10" stroke-linecap="round"/>
<path d="M169.175 101.092C169.763 101.092 170.239 100.616 170.239 100.028C170.239 99.4403 169.763 98.9639 169.175 98.9639C168.588 98.9639 168.111 99.4403 168.111 100.028C168.111 100.616 168.588 101.092 169.175 101.092Z" fill="#2892FF"/>
<path d="M168.111 104.683C168.699 104.683 169.175 104.206 169.175 103.619C169.175 103.031 168.699 102.555 168.111 102.555C167.523 102.555 167.047 103.031 167.047 103.619C167.047 104.206 167.523 104.683 168.111 104.683Z" fill="#2892FF"/>
<path d="M166.346 107.806C166.934 107.806 167.41 107.329 167.41 106.742C167.41 106.154 166.934 105.678 166.346 105.678C165.759 105.678 165.282 106.154 165.282 106.742C165.282 107.329 165.759 107.806 166.346 107.806Z" fill="#2892FF"/>
<path d="M85.7539 124.213C85.7539 124.213 86.5429 128.345 85.9654 131.248C85.9654 131.248 104.395 137.37 110.199 151.493L110.559 148.47C111.31 142.142 109.474 135.756 105.386 130.868C101.573 126.313 95.4417 122.592 85.7539 124.213Z" fill="white" stroke="#000E17" stroke-width="0.423077" stroke-miterlimit="10"/>
<path d="M85.7539 124.213L115.066 112.121C115.066 112.121 132.963 116.087 138.574 132.339L110.196 151.493C110.196 151.493 116.517 128.18 85.7539 124.213Z" fill="white" stroke="#000E17" stroke-width="0.423077" stroke-miterlimit="10"/>
<path d="M110.389 150.529C110.389 150.529 113.163 137.886 110.196 132.468C110.196 132.468 111.97 134.129 112.793 136.16C113.615 138.192 113.709 137.87 113.709 137.87C113.709 137.87 113.758 135.387 114.386 134.697C114.386 134.697 115.435 135.567 116.063 135.084C116.691 134.6 117.498 133.568 117.498 133.568C117.498 133.568 117.74 136.084 118.643 135.293C119.546 134.503 119.32 133.858 119.32 133.858C119.32 133.858 120.384 137.293 121.012 136.051C121.641 134.809 121.674 133.936 121.674 133.936C121.674 133.936 122.431 135.242 122.609 134.629C122.786 134.016 123.995 135.354 124.833 134.145C125.672 132.936 125.785 131.872 125.785 131.872C125.785 131.872 125.897 130.641 127.759 131.544C129.62 132.447 129.231 132.36 129.586 131.262C129.941 130.163 130.134 130.219 130.134 130.219C130.134 130.219 130.521 131.326 130.844 130.681C131.167 130.036 131.983 131.401 134.004 129.51C134.004 129.51 134.702 128.821 135.014 128.821C135.014 128.821 134.455 129.574 135.014 129.692C135.573 129.811 136.852 129.551 137.314 128.757C137.776 127.963 137.839 125.387 137.839 125.387C137.839 125.387 139.377 129.908 138.549 132.272L110.389 150.529Z" fill="white" stroke="#000E17" stroke-width="0.423077" stroke-miterlimit="10"/>
<path d="M173.154 141.479C173.154 141.479 175.639 148.108 177.221 151.009L142.959 167.552L141.54 155.556L173.154 141.479Z" fill="white" stroke="#000E17" stroke-width="0.423077" stroke-miterlimit="10"/>
<path d="M110.196 151.493C110.506 148.896 111.674 146.477 113.514 144.619C115.355 142.761 117.763 141.571 120.357 141.237C123.656 140.814 126.998 140.712 128.77 141.626C133.027 143.818 141.54 155.555 141.54 155.555L142.959 167.551C142.959 167.551 120.902 147.042 110.196 151.492V151.493Z" fill="white" stroke="#000E17" stroke-width="0.423077" stroke-miterlimit="10"/>
<path d="M110.196 151.493C110.196 151.493 111.219 145.77 115.828 143.077C120.758 140.197 129.658 140.785 141.54 155.558L173.154 141.481C173.154 141.481 159.978 123.945 138.573 132.341L118.596 141.002C115.86 142.188 113.876 144.099 112.088 146.486C112.088 146.486 110.894 148.451 110.607 149.453L110.196 151.493Z" fill="white" stroke="#000E17" stroke-width="0.423077" stroke-miterlimit="10"/>
<path d="M157.173 56.8468L157.163 56.4738C157.115 55.7123 157.415 54.8668 158.171 54.0595C158.853 53.3191 159.238 52.7789 159.27 52.1359C159.307 51.4068 158.873 50.8977 157.973 50.8391C157.458 50.8137 156.878 50.9562 156.507 51.2107L156.209 50.2941C156.712 49.9746 157.524 49.7857 158.282 49.823C159.926 49.9048 160.619 50.9569 160.565 52.0435C160.517 53.0152 159.938 53.7034 159.212 54.4698C158.546 55.182 158.285 55.8138 158.295 56.545L158.292 56.9032L157.173 56.8468ZM157.544 59.7745C157.057 59.7505 156.734 59.3472 156.758 58.8473C156.785 58.3184 157.161 57.9645 157.661 57.9891C158.161 58.0138 158.486 58.403 158.46 58.9312C158.435 59.4318 158.087 59.8013 157.558 59.7773L157.544 59.7745Z" fill="#000E17"/>
<path d="M145.124 62.8383L144.897 62.5408C144.413 61.9513 144.162 61.0903 144.304 59.9924C144.424 58.9933 144.421 58.3305 144.071 57.7903C143.674 57.1769 143.025 57.0147 142.261 57.4963C141.828 57.7783 141.441 58.231 141.288 58.6541L140.513 58.0844C140.735 57.5308 141.283 56.9033 141.923 56.4908C143.304 55.596 144.482 56.0444 145.073 56.9576C145.602 57.7741 145.535 58.6703 145.394 59.7167C145.27 60.6842 145.427 61.3491 145.861 61.9386L146.067 62.2312L145.124 62.8383ZM147.136 64.9967C146.727 65.2612 146.229 65.1237 145.956 64.7027C145.669 64.2592 145.767 63.7515 146.188 63.4793C146.609 63.2071 147.099 63.3326 147.386 63.7769C147.658 64.1999 147.592 64.7006 147.148 64.989L147.136 64.9967Z" fill="#000E17"/>
</svg>
