<?xml version="1.0" standalone="no"?>
<!DOCTYPE svg PUBLIC "-//W3C//DTD SVG 20010904//EN"
 "http://www.w3.org/TR/2001/REC-SVG-20010904/DTD/svg10.dtd">
<svg version="1.0" xmlns="http://www.w3.org/2000/svg"
 width="1440.000000pt" height="1200.000000pt" viewBox="0 0 1440.000000 1200.000000"
 preserveAspectRatio="xMidYMid meet">

<g transform="translate(0.000000,1200.000000) scale(0.100000,-0.100000)"
fill="#4A4A4A" stroke="none">
<path d="M9519 11963 c-43 -132 -367 -792 -529 -1078 -230 -406 -330 -652
-390 -960 -48 -249 -126 -407 -283 -572 -70 -74 -148 -138 -452 -373 -88 -68
-227 -181 -310 -250 -190 -160 -289 -233 -393 -290 -218 -119 -338 -215 -505
-409 -50 -58 -130 -149 -178 -201 -48 -52 -118 -133 -155 -180 -179 -224 -433
-486 -679 -699 -71 -63 -272 -256 -445 -430 -173 -174 -356 -354 -405 -401
-106 -100 -151 -175 -184 -314 -25 -100 -50 -155 -114 -248 -130 -186 -283
-474 -432 -808 -43 -96 -91 -194 -107 -217 -54 -80 -138 -123 -240 -123 l-48
0 0 73 c1 39 5 131 9 202 5 72 7 131 6 133 -2 2 -36 -30 -77 -70 -40 -40 -107
-100 -148 -132 -208 -165 -366 -378 -503 -681 -139 -306 -211 -521 -246 -740
-66 -405 -117 -574 -267 -875 -95 -190 -174 -319 -353 -579 -181 -261 -196
-287 -276 -461 -40 -85 -155 -326 -257 -535 -102 -209 -200 -416 -218 -460
-49 -120 -100 -258 -100 -272 0 -10 96 -13 444 -13 l445 0 43 82 c23 45 65
113 93 152 91 127 399 508 506 626 57 63 123 138 145 165 113 137 216 338 265
515 59 215 102 277 237 342 60 28 108 61 154 104 79 74 132 96 169 70 35 -24
72 -20 150 20 47 23 81 34 102 32 32 -3 32 -3 30 -58 -1 -64 -40 -203 -88
-313 -86 -200 -193 -341 -326 -428 -144 -95 -206 -180 -293 -399 -79 -199
-100 -295 -100 -445 0 -121 2 -136 32 -221 37 -106 40 -145 12 -199 -11 -22
-20 -41 -20 -42 0 -2 645 -3 1434 -3 l1434 0 48 83 c112 195 211 333 299 418
138 133 184 205 273 430 107 268 192 427 468 876 98 158 213 348 257 422 69
119 101 159 275 350 451 497 445 491 547 491 106 0 162 -50 184 -165 24 -123
51 -165 109 -165 18 0 164 82 252 140 30 21 114 90 185 154 137 124 260 212
335 240 115 44 178 109 477 485 187 235 223 310 223 474 0 108 26 159 156 297
55 59 141 166 189 237 166 242 351 477 618 787 49 57 119 156 168 238 106 177
207 311 347 460 139 148 192 216 248 322 52 98 71 153 165 466 39 129 93 290
119 358 27 68 52 138 55 155 6 37 -28 513 -37 523 -4 3 -27 -6 -53 -21 -51
-30 -74 -69 -139 -231 -43 -106 -94 -183 -144 -218 -78 -54 -556 -269 -598
-268 -28 0 -84 38 -84 58 0 22 47 110 103 194 68 101 153 188 263 270 100 75
160 138 216 231 80 131 149 340 150 454 1 86 -12 114 -87 188 l-55 54 0 69 c0
38 5 89 11 113 9 39 7 46 -12 67 -13 13 -29 24 -37 24 -7 0 -50 -16 -93 -35
-44 -19 -96 -35 -114 -35 -43 0 -75 29 -75 68 0 44 68 201 117 270 86 121 119
217 182 530 17 81 36 198 43 260 l12 113 41 18 c56 25 112 76 137 124 11 22
40 135 64 251 59 281 98 395 178 513 26 38 24 54 -11 85 -13 11 -42 17 -99 20
-91 3 -124 21 -124 66 0 13 16 110 36 216 32 171 39 194 63 215 14 13 83 77
153 142 l128 119 -1354 0 -1354 0 -13 -37z m2125 -165 c-21 -320 -58 -548
-120 -741 -48 -146 -100 -200 -148 -151 -19 18 -20 53 -5 200 21 219 65 385
148 560 45 95 115 214 126 214 2 0 2 -37 -1 -82z m104 -1260 c2 -15 -2 -36 -8
-48 -11 -20 -66 -60 -82 -60 -5 0 -8 27 -8 60 0 66 13 82 65 77 24 -2 31 -7
33 -29z m-69 -223 c-1 -40 -3 -45 -9 -25 -12 38 -12 109 0 90 5 -8 9 -37 9
-65z m-4251 -4954 c5 -33 -103 -138 -124 -121 -8 7 -14 19 -14 28 0 36 97 128
125 119 6 -2 12 -14 13 -26z m532 -374 c0 -7 -6 -21 -13 -31 -12 -16 -14 -16
-27 -2 -11 14 -10 19 6 31 24 18 34 19 34 2z m-4200 -957 c-12 -22 -25 -26
-35 -10 -9 15 4 30 26 30 17 0 18 -3 9 -20z m2140 -3541 c-28 -56 -27 -54 -45
-39 -16 13 -15 25 12 88 l14 35 21 -20 20 -20 -22 -44z m-1510 -102 c0 -35
-50 -146 -75 -167 -13 -11 -15 -4 -15 50 0 50 5 73 25 107 33 55 65 60 65 10z
m-70 -232 c14 -17 4 -55 -15 -55 -20 0 -28 17 -21 46 7 27 18 30 36 9z"/>
<path d="M6891 585 c-61 -52 -92 -133 -71 -184 20 -49 80 -64 145 -37 46 19
62 49 70 128 7 63 6 68 -18 92 -35 35 -85 35 -126 1z"/>
</g>
</svg>
