<?xml version="1.0" encoding="UTF-8"?>
<svg id="Layer_1" data-name="Layer 1" xmlns="http://www.w3.org/2000/svg" viewBox="0 0 1367.68 201.06">
  <defs>
    <style>
      .cls-1 {
        fill: #000;
      }

      .cls-1, .cls-2 {
        stroke-width: 0px;
      }

      .cls-2 {
        fill: #4d4d4d;
      }
    </style>
  </defs>
  <path class="cls-1" d="M1367.68,147.12c0,29.09-32.83,53.94-104.5,53.94-42.03,0-83.27-10.45-104.09-25.7l11.61-16.09c20.02,13.84,55.65,24,92.48,24,52.45,0,75.27-15.53,75.27-35.02,0-54.22-172.56-20.89-172.56-94.03,0-12.73,6.14-24.71,19.02-34.15h-88.28v94.86c0,56.76-43.24,86.13-114.91,86.13s-115.31-29.37-115.31-86.13V19.76h-55.38l-112.77,179.61h-29.23l-112.77-179.61h-201.13v70.32h144.94v17.79h-144.94v73.42h168.56v18.08h-198.18V19.76h-91.21v179.61h-24.43L29.64,38.97v160.4H0V1.69h24.44l180.63,160.4V1.69l29.23.38,91.21-.38h251.43l107.3,171.7L792.35,1.69h103.69v112.39c0,46.88,31.23,68.34,85.68,68.34s86.08-21.46,86.08-68.34V1.69h171.42c9.09-1.1,19.07-1.69,29.97-1.69,31.63,0,64.46,6.49,86.88,17.51l-10.01,16.66c-24.02-11.02-52.05-16.38-76.87-16.38-10.53,0-19.87.68-28.05,1.94-.72.1-1.44.22-2.14.34-30.13,5.1-43.88,18.23-43.88,33.58,0,54.22,172.56,21.46,172.56,93.47Z"/>
  <polygon class="cls-2" points="1057.63 8.11 1057.63 8.52 1057.42 8.52 1057.63 8.11"/>
  <path class="cls-2" d="M1230.97,8.18v.34h-2.14c.7-.12,1.42-.24,2.14-.34Z"/>
</svg>